                <svg width="100%" height="auto" viewBox="0 0 841 674" xmlns="http://www.w3.org/2000/svg">
                    <g class ="map-point">
                        <rect width="841" height="674" fill="#FAF3EF"/>
                        <path id="Vector-1" d="M40 23L780 20" stroke="black" stroke-width="4" fill = "none"/>
                        <path id="Vector-2" d="M202 129V639H659.023V152H780" stroke="black" stroke-width="4" fill = "none"/>
                        <path id="Vector-3" d="M40 130L200 130" stroke="black" stroke-width="4" fill = "none"/>
                        <path id="Vector-4" d="M358 144L356.994 492" stroke="black" stroke-width="4" fill = "none"/>
                        <path id="Vector-5" d="M358 490H490.5V156.5L358 145" stroke="black" stroke-width="4" fill = "none"/>
                        <path id="Vector-6" d="M202 23V72" stroke="black" stroke-width="4" fill = "none"/>
                        <path id="Vector-16" d="M358 21V70" stroke="black" stroke-width="4" fill = "none"/>
                        <path id="Vector-7" d="M202 100V132" stroke="black" stroke-width="4" fill = "none"/>
                        <path id="Vector-8" d="M203 130H251" stroke="black" stroke-width="4" fill = "none"/>
                        <path id="Vector-10" d="M358 100V144" stroke="black" stroke-width="4" fill = "none"/>
                        <path id="Vector-11" d="M200 423H258" stroke="black" stroke-width="4" fill = "none"/>
                        <path id="Vector-12" d="M300 423H356.5" stroke="black" stroke-width="4" fill = "none"/>
                        <path id="Vector-13" d="M491 490H553.5" stroke="black" stroke-width="4" fill = "none"/>
                        <path id="Vector-14" d="M600 490H661" stroke="black" stroke-width="4" fill = "none"/>
                        <path id="Vector-15" d="M659.5 152H571" stroke="black" stroke-width="4" fill = "none"/>
                        
                        <ellipse id="point-4" class="map-point" cx="226.5" cy="199" rx="14.5" ry="15" onclick="showInfo(4)"/>
                        <ellipse id="point-6" class="map-point" cx="334.5" cy="244" rx="14.5" ry="15" onclick="showInfo(6)"/>
                        <ellipse id="point-11" class="map-point" cx="226.5" cy="310" rx="14.5" ry="15" onclick="showInfo(11)"/>
                        <ellipse id="point-12" class="map-point" cx="334.5" cy="352" rx="14.5" ry="15" onclick="showInfo(12)"/>
                        <ellipse id="point-8" class="map-point" cx="226.5" cy="470" rx="14.5" ry="15" onclick="showInfo(8)"/>
                        <ellipse id="point-7" class="map-point" cx="234.5" cy="611" rx="14.5" ry="15" onclick="showInfo(7)"/>
                        <ellipse id="point-14" class="map-point" cx="348.5" cy="611" rx="14.5" ry="15" onclick="showInfo(14)"/>
                        <ellipse id="point-5" class="map-point" cx="435.5" cy="515" rx="14.5" ry="15" onclick="showInfo(5)"/>
                        <ellipse id="point-9" class="map-point" cx="474.5" cy="611" rx="14.5" ry="15" onclick="showInfo(9)"/>
                        <ellipse id="point-10" class="map-point" cx="583.5" cy="611" rx="14.5" ry="15" onclick="showInfo(10)"/>
                        <ellipse id="point-13" class="map-point" cx="629.5" cy="545" rx="14.5" ry="15" onclick="showInfo(13)"/>
                        <ellipse id="point-3" class="map-point" cx="634.5" cy="413" rx="14.5" ry="15" onclick="showInfo(3)"/>
                        <ellipse id="point-19" class="map-point" cx="514.5" cy="360" rx="14.5" ry="15" onclick="showInfo(19)"/>
                        <ellipse id="point-15" class="map-point" cx="634.5" cy="265" rx="14.5" ry="15" onclick="showInfo(15)"/>
                        <ellipse id="point-16" class="map-point" cx="514.5" cy="215" rx="14.5" ry="15" onclick="showInfo(16)"/>
                        <ellipse id="point-1" class="map-point" cx="454.5" cy="48" rx="14.5" ry="15" onclick="showInfo(1)"/>
                        <ellipse id="point-2" class="map-point" cx="574.5" cy="48" rx="14.5" ry="15" onclick="showInfo(2)"/>
                        <ellipse id="point-17" class="map-point" cx="665.5" cy="122" rx="14.5" ry="15" onclick="showInfo(17)"/>
                        <ellipse id="point-18" class="map-point" cx="735.5" cy="48" rx="14.5" ry="15" onclick="showInfo(18)"/>

                        <path id="Arrow-1" d="M140.707 80.7071C141.098 80.3166 141.098 79.6834 140.707 79.2929L134.343 72.9289C133.953 72.5384 133.319 72.5384 132.929 72.9289C132.538 73.3195 132.538 73.9526 132.929 74.3431L138.586 80L132.929 85.6569C132.538 86.0474 132.538 86.6805 132.929 87.0711C133.319 87.4616 133.953 87.4616 134.343 87.0711L140.707 80.7071ZM70 81L140 81V79L70 79V81Z" fill="black"/>
                        <path id="Arrow-2" d="M279.293 243.707C279.683 244.098 280.317 244.098 280.707 243.707L287.071 237.343C287.462 236.953 287.462 236.319 287.071 235.929C286.681 235.538 286.047 235.538 285.657 235.929L280 241.586L274.343 235.929C273.953 235.538 273.319 235.538 272.929 235.929C272.538 236.319 272.538 236.953 272.929 237.343L279.293 243.707ZM279 154L279 243H281L281 154H279Z" fill="black"/>
                        <path id="Arrow-6" d="M329.707 540.707C330.098 540.317 330.098 539.683 329.707 539.293L323.343 532.929C322.953 532.538 322.319 532.538 321.929 532.929C321.538 533.319 321.538 533.953 321.929 534.343L327.586 540L321.929 545.657C321.538 546.047 321.538 546.681 321.929 547.071C322.319 547.462 322.953 547.462 323.343 547.071L329.707 540.707ZM249 541H329V539H249V541Z" fill="black"/>
                        <path id="Arrow-4" d="M575.707 349.293C575.317 348.902 574.683 348.902 574.293 349.293L567.929 355.657C567.538 356.047 567.538 356.681 567.929 357.071C568.319 357.462 568.953 357.462 569.343 357.071L575 351.414L580.657 357.071C581.047 357.462 581.681 357.462 582.071 357.071C582.462 356.681 582.462 356.047 582.071 355.657L575.707 349.293ZM576 428V350H574V428H576Z" fill="black"/>
                        <path id="Arrow-5" d="M567.707 107.707C568.098 107.317 568.098 106.683 567.707 106.293L561.343 99.9289C560.953 99.5384 560.319 99.5384 559.929 99.9289C559.538 100.319 559.538 100.953 559.929 101.343L565.586 107L559.929 112.657C559.538 113.047 559.538 113.681 559.929 114.071C560.319 114.462 560.953 114.462 561.343 114.071L567.707 107.707ZM480 108L567 108V106L480 106V108Z" fill="black"/>
                        <path id="entrance" d="M30.2 114.212C30.2 115.319 29.9933 116.272 29.58 117.072C29.1667 117.872 28.58 118.492 27.82 118.932C27.06 119.359 26.16 119.572 25.12 119.572C24.1067 119.572 23.22 119.365 22.46 118.952C21.7 118.525 21.1067 117.945 20.68 117.212C20.24 116.465 20.02 115.619 20.02 114.672C20.02 113.979 20.1333 113.359 20.36 112.812C20.5867 112.252 20.9133 111.779 21.34 111.392C21.7667 110.992 22.2867 110.692 22.9 110.492C23.5 110.279 24.18 110.172 24.94 110.172C25.18 110.172 25.3667 110.259 25.5 110.432C25.62 110.592 25.68 110.825 25.68 111.132V117.552H24.24V111.932L24.54 112.252C23.9267 112.252 23.4133 112.345 23 112.532C22.5867 112.705 22.2733 112.965 22.06 113.312C21.8333 113.645 21.72 114.065 21.72 114.572C21.72 115.132 21.8533 115.612 22.12 116.012C22.3733 116.399 22.74 116.699 23.22 116.912C23.6867 117.112 24.2467 117.212 24.9 117.212H25.04C26.1333 117.212 26.9533 116.959 27.5 116.452C28.0333 115.932 28.3 115.172 28.3 114.172C28.3 113.825 28.26 113.439 28.18 113.012C28.0867 112.572 27.9333 112.159 27.72 111.772C27.56 111.492 27.4933 111.245 27.52 111.032C27.5333 110.819 27.6067 110.652 27.74 110.532C27.8733 110.399 28.04 110.319 28.24 110.292C28.4267 110.265 28.62 110.305 28.82 110.412C29.02 110.505 29.1933 110.672 29.34 110.912C29.6333 111.379 29.8533 111.919 30 112.532C30.1333 113.132 30.2 113.692 30.2 114.212ZM30.16 106.952C30.16 107.352 30.0533 107.659 29.84 107.872C29.6133 108.086 29.2933 108.192 28.88 108.192H21.32C20.9067 108.192 20.5933 108.086 20.38 107.872C20.1667 107.659 20.06 107.359 20.06 106.972C20.06 106.586 20.1667 106.286 20.38 106.072C20.5933 105.859 20.9067 105.752 21.32 105.752H22.68L22.18 105.972C21.4733 105.679 20.94 105.226 20.58 104.612C20.2067 103.986 20.02 103.279 20.02 102.492C20.02 101.706 20.1667 101.059 20.46 100.552C20.7533 100.046 21.2 99.6655 21.8 99.4122C22.3867 99.1589 23.1333 99.0322 24.04 99.0322H28.88C29.2933 99.0322 29.6133 99.1389 29.84 99.3522C30.0533 99.5655 30.16 99.8722 30.16 100.272C30.16 100.672 30.0533 100.986 29.84 101.212C29.6133 101.426 29.2933 101.532 28.88 101.532H24.16C23.4 101.532 22.8467 101.679 22.5 101.972C22.1533 102.252 21.98 102.692 21.98 103.292C21.98 104.026 22.2133 104.612 22.68 105.052C23.1333 105.479 23.74 105.692 24.5 105.692H28.88C29.7333 105.692 30.16 106.112 30.16 106.952ZM30.2 92.013C30.2 92.8796 30.0533 93.6063 29.76 94.193C29.4667 94.7663 29.04 95.193 28.48 95.473C27.9067 95.753 27.2 95.893 26.36 95.893H22.1V96.933C22.1 97.253 22.02 97.4996 21.86 97.673C21.6867 97.8463 21.4533 97.933 21.16 97.933C20.8533 97.933 20.62 97.8463 20.46 97.673C20.3 97.4996 20.22 97.253 20.22 96.933V95.893H18.4C17.9867 95.893 17.6733 95.7863 17.46 95.573C17.2467 95.3463 17.14 95.033 17.14 94.633C17.14 94.233 17.2467 93.9263 17.46 93.713C17.6733 93.4996 17.9867 93.393 18.4 93.393H20.22V91.273C20.22 90.953 20.3 90.7063 20.46 90.533C20.62 90.3596 20.8533 90.273 21.16 90.273C21.4533 90.273 21.6867 90.3596 21.86 90.533C22.02 90.7063 22.1 90.953 22.1 91.273V93.393H26.22C26.86 93.393 27.34 93.253 27.66 92.973C27.98 92.693 28.14 92.2396 28.14 91.613C28.14 91.3863 28.12 91.1863 28.08 91.013C28.04 90.8396 28.0133 90.6863 28 90.553C27.9867 90.393 28.04 90.2596 28.16 90.153C28.2667 90.0463 28.4933 89.993 28.84 89.993C29.1067 89.993 29.3467 90.0396 29.56 90.133C29.76 90.213 29.9 90.3663 29.98 90.593C30.0333 90.7663 30.08 90.993 30.12 91.273C30.1733 91.553 30.2 91.7996 30.2 92.013ZM30.16 87.5372C30.16 87.9505 30.0533 88.2705 29.84 88.4972C29.6133 88.7105 29.2933 88.8172 28.88 88.8172H21.32C20.9067 88.8172 20.5933 88.7105 20.38 88.4972C20.1667 88.2839 20.06 87.9839 20.06 87.5972C20.06 87.2105 20.1667 86.9105 20.38 86.6972C20.5933 86.4839 20.9067 86.3772 21.32 86.3772H22.58V86.5772C21.78 86.3905 21.1733 86.0239 20.76 85.4772C20.3467 84.9305 20.1 84.2039 20.02 83.2972C19.9933 83.0172 20.0667 82.7972 20.24 82.6372C20.4 82.4639 20.6533 82.3639 21 82.3372C21.3333 82.3105 21.6067 82.3905 21.82 82.5772C22.02 82.7505 22.14 83.0172 22.18 83.3772L22.22 83.8172C22.3 84.6305 22.5533 85.2439 22.98 85.6572C23.3933 86.0705 23.98 86.2772 24.74 86.2772H28.88C29.2933 86.2772 29.6133 86.3839 29.84 86.5972C30.0533 86.8105 30.16 87.1239 30.16 87.5372ZM30.2 77.8628C30.2 78.5695 30.0667 79.2028 29.8 79.7628C29.52 80.3095 29.1467 80.7428 28.68 81.0628C28.2133 81.3695 27.6867 81.5228 27.1 81.5228C26.38 81.5228 25.8133 81.3361 25.4 80.9628C24.9733 80.5895 24.6667 79.9828 24.48 79.1428C24.2933 78.3028 24.2 77.1761 24.2 75.7628V74.7628H25.64V75.7428C25.64 76.5695 25.68 77.2295 25.76 77.7228C25.84 78.2161 25.98 78.5695 26.18 78.7828C26.3667 78.9828 26.6333 79.0828 26.98 79.0828C27.42 79.0828 27.78 78.9295 28.06 78.6228C28.34 78.3161 28.48 77.8895 28.48 77.3428C28.48 76.9028 28.38 76.5161 28.18 76.1828C27.9667 75.8361 27.68 75.5628 27.32 75.3628C26.96 75.1628 26.5467 75.0628 26.08 75.0628H23.78C23.1133 75.0628 22.6333 75.2095 22.34 75.5028C22.0467 75.7961 21.9 76.2895 21.9 76.9828C21.9 77.3695 21.9467 77.7895 22.04 78.2428C22.1333 78.6828 22.2933 79.1495 22.52 79.6428C22.64 79.8961 22.6733 80.1228 22.62 80.3228C22.5667 80.5095 22.46 80.6561 22.3 80.7628C22.1267 80.8695 21.94 80.9228 21.74 80.9228C21.54 80.9228 21.3467 80.8695 21.16 80.7628C20.96 80.6561 20.8133 80.4761 20.72 80.2228C20.4667 79.6095 20.2867 79.0228 20.18 78.4628C20.0733 77.8895 20.02 77.3695 20.02 76.9028C20.02 75.9428 20.1667 75.1561 20.46 74.5428C20.7533 73.9161 21.2 73.4495 21.8 73.1428C22.3867 72.8361 23.1467 72.6828 24.08 72.6828H28.88C29.2933 72.6828 29.6133 72.7828 29.84 72.9828C30.0533 73.1828 30.16 73.4695 30.16 73.8428C30.16 74.2161 30.0533 74.5095 29.84 74.7228C29.6133 74.9228 29.2933 75.0228 28.88 75.0228H27.92V74.8628C28.3867 74.9561 28.7933 75.1428 29.14 75.4228C29.4733 75.6895 29.7333 76.0295 29.92 76.4428C30.1067 76.8561 30.2 77.3295 30.2 77.8628ZM30.16 68.9053C30.16 69.3053 30.0533 69.612 29.84 69.8253C29.6133 70.0386 29.2933 70.1453 28.88 70.1453H21.32C20.9067 70.1453 20.5933 70.0386 20.38 69.8253C20.1667 69.612 20.06 69.312 20.06 68.9253C20.06 68.5386 20.1667 68.2386 20.38 68.0253C20.5933 67.812 20.9067 67.7053 21.32 67.7053H22.68L22.18 67.9253C21.4733 67.632 20.94 67.1786 20.58 66.5653C20.2067 65.9386 20.02 65.232 20.02 64.4453C20.02 63.6586 20.1667 63.012 20.46 62.5053C20.7533 61.9986 21.2 61.6186 21.8 61.3653C22.3867 61.112 23.1333 60.9853 24.04 60.9853H28.88C29.2933 60.9853 29.6133 61.092 29.84 61.3053C30.0533 61.5186 30.16 61.8253 30.16 62.2253C30.16 62.6253 30.0533 62.9386 29.84 63.1653C29.6133 63.3786 29.2933 63.4853 28.88 63.4853H24.16C23.4 63.4853 22.8467 63.632 22.5 63.9253C22.1533 64.2053 21.98 64.6453 21.98 65.2453C21.98 65.9786 22.2133 66.5653 22.68 67.0053C23.1333 67.432 23.74 67.6453 24.5 67.6453H28.88C29.7333 67.6453 30.16 68.0653 30.16 68.9053ZM30.2 53.9261C30.2 54.9528 29.9933 55.8461 29.58 56.6061C29.1533 57.3661 28.5533 57.9528 27.78 58.3661C27.0067 58.7794 26.1 58.9861 25.06 58.9861C24.2733 58.9861 23.5733 58.8728 22.96 58.6461C22.3333 58.4061 21.8067 58.0661 21.38 57.6261C20.94 57.1861 20.6067 56.6528 20.38 56.0261C20.14 55.3994 20.02 54.6994 20.02 53.9261C20.02 53.4861 20.08 53.0128 20.2 52.5061C20.32 51.9861 20.52 51.4994 20.8 51.0461C20.9333 50.8328 21.0933 50.6928 21.28 50.6261C21.4667 50.5594 21.66 50.5461 21.86 50.5861C22.0467 50.6261 22.2133 50.7128 22.36 50.8461C22.4933 50.9661 22.58 51.1194 22.62 51.3061C22.6467 51.4928 22.6 51.6994 22.48 51.9261C22.3067 52.2194 22.18 52.5194 22.1 52.8261C22.0067 53.1328 21.96 53.4261 21.96 53.7061C21.96 54.1461 22.0333 54.5328 22.18 54.8661C22.3133 55.1994 22.5133 55.4861 22.78 55.7261C23.0333 55.9528 23.3533 56.1261 23.74 56.2461C24.1267 56.3661 24.5733 56.4261 25.08 56.4261C26.0667 56.4261 26.8467 56.1928 27.42 55.7261C27.98 55.2461 28.26 54.5728 28.26 53.7061C28.26 53.4261 28.22 53.1394 28.14 52.8461C28.06 52.5394 27.9333 52.2328 27.76 51.9261C27.64 51.6994 27.6 51.4994 27.64 51.3261C27.68 51.1394 27.7733 50.9861 27.92 50.8661C28.0533 50.7461 28.22 50.6728 28.42 50.6461C28.6067 50.6194 28.7933 50.6461 28.98 50.7261C29.1667 50.7928 29.32 50.9261 29.44 51.1261C29.7067 51.5661 29.9 52.0328 30.02 52.5261C30.14 53.0194 30.2 53.4861 30.2 53.9261ZM30.2 44.3878C30.2 45.4945 29.9933 46.4478 29.58 47.2478C29.1667 48.0478 28.58 48.6678 27.82 49.1078C27.06 49.5345 26.16 49.7478 25.12 49.7478C24.1067 49.7478 23.22 49.5411 22.46 49.1278C21.7 48.7011 21.1067 48.1211 20.68 47.3878C20.24 46.6411 20.02 45.7945 20.02 44.8478C20.02 44.1545 20.1333 43.5345 20.36 42.9878C20.5867 42.4278 20.9133 41.9545 21.34 41.5678C21.7667 41.1678 22.2867 40.8678 22.9 40.6678C23.5 40.4545 24.18 40.3478 24.94 40.3478C25.18 40.3478 25.3667 40.4345 25.5 40.6078C25.62 40.7678 25.68 41.0011 25.68 41.3078V47.7278H24.24V42.1078L24.54 42.4278C23.9267 42.4278 23.4133 42.5211 23 42.7078C22.5867 42.8811 22.2733 43.1411 22.06 43.4878C21.8333 43.8211 21.72 44.2411 21.72 44.7478C21.72 45.3078 21.8533 45.7878 22.12 46.1878C22.3733 46.5745 22.74 46.8745 23.22 47.0878C23.6867 47.2878 24.2467 47.3878 24.9 47.3878H25.04C26.1333 47.3878 26.9533 47.1345 27.5 46.6278C28.0333 46.1078 28.3 45.3478 28.3 44.3478C28.3 44.0011 28.26 43.6145 28.18 43.1878C28.0867 42.7478 27.9333 42.3345 27.72 41.9478C27.56 41.6678 27.4933 41.4211 27.52 41.2078C27.5333 40.9945 27.6067 40.8278 27.74 40.7078C27.8733 40.5745 28.04 40.4945 28.24 40.4678C28.4267 40.4411 28.62 40.4811 28.82 40.5878C29.02 40.6811 29.1933 40.8478 29.34 41.0878C29.6333 41.5545 29.8533 42.0945 30 42.7078C30.1333 43.3078 30.2 43.8678 30.2 44.3878Z" fill="black"/>
                    </g>
                </svg>