<?xml version="1.0"?>
<svg width="1196" height="1294" xmlns="http://www.w3.org/2000/svg" xmlns:svg="http://www.w3.org/2000/svg" enable-background="new 0 0 1196 1294" version="1.1" xml:space="preserve">
 <g class="layer">
  <title>Layer 1</title>
  <path d="m24.5,1250.5c74.5,0 149,0 223.5,0c16.28,0 32.39,-1.58 48.52,-3.87c19.43,-2.76 38.17,-7.82 56.46,-14.68c11.96,-4.48 23.57,-9.79 34.51,-16.46c2.64,-1.61 5.64,-1.83 8.51,-1.92c13.19,-0.42 26.37,0.27 39.5,1.48c11.71,1.08 23.4,2.37 35.01,4.41c12.76,2.25 25.44,4.86 37.98,8.09c5.4,1.38 10.67,3.29 16.01,4.95c3.06,0.95 5.42,0.08 8.06,-1.92c30.74,-23.29 61.74,-46.24 92.38,-69.66c13.42,-10.27 27.25,-19.75 42.57,-26.89c23.64,-11.01 47.64,-21.17 71.96,-30.6c21.89,-8.49 43.67,-17.27 66.05,-24.38c29.55,-9.38 55.71,-25 81.03,-42.48c33.68,-23.25 65.97,-48.37 98.91,-72.62c23.86,-17.57 47.33,-35.67 71.06,-53.43c13.07,-9.79 26.09,-19.68 39.53,-28.94c20.59,-14.19 37.26,-31.83 50.54,-53.02c13.68,-21.81 22.48,-45.43 26.73,-70.59c3.17,-18.8 2.83,-37.93 1.69,-56.97c-0.07,-1.16 -0.01,-2.33 -0.01,-3.5c0,-141.33 0,-282.67 0,-424c0,-83.17 -0.02,-166.33 0.04,-249.5c0,-5.84 0.32,-7.54 -7.54,-7.53c-34,0.06 -68,0.06 -102,0c-7.86,-0.01 -7.55,1.69 -7.54,7.53c0.07,53 0.04,106 0.04,159c0,2.22 0.32,4.52 -1.02,6.49c-1.4,2.05 -1.35,3.94 -0.02,6.04c0.73,1.14 1.4,2.46 1.04,3.97c-3.1,13.17 1.98,26.38 -0.14,39.48c-0.88,5.46 -0.87,10.67 0.08,16.03c0.25,1.43 0.19,3.28 -0.53,4.43c-1.78,2.84 -1.82,5.3 0.01,8.11c0.66,1.01 0.54,2.62 0.56,3.95c0.06,4.67 0.34,9.36 -0.05,13.99c-0.62,7.19 0.96,14.29 0.22,21.53c-0.71,6.92 -0.18,13.98 -0.13,20.98c0.02,2.41 -0.68,5.07 1.5,6.98c1.29,1.12 0.19,2.28 -0.12,2.98c-1.79,4.07 -1.39,8.32 -1.39,12.54c-0.01,70.67 -0.04,141.33 0.02,212c0.01,16.33 -4.15,31.78 -10.67,46.44c-9.23,20.75 -22.45,38.8 -40.38,53.03c-11.64,9.24 -24.46,16.41 -38.46,21.58c-21.84,8.08 -44.49,10.1 -67.52,9.97c-18.32,-0.1 -18.26,0.05 -32.02,10.45c-8.56,6.48 -17.39,12.59 -25.93,19.1c-2.36,1.8 -4.68,2.47 -7.55,2.46c-33.83,-0.05 -67.67,-0.07 -101.5,-0.01c-12.5,0.03 -25,0.33 -37.5,0.47c-3.46,0.04 -7.01,0.47 -10.01,-1.98c-1.51,-1.23 -3,0.02 -4.49,0.24c-2.03,0.29 -3.74,2.08 -6,1.25" fill="none" id="svg_1" opacity="1" stroke="#000000" stroke-linecap="round" stroke-linejoin="round" stroke-width="10"/>
  <path d="m382.5,1131.5c-12.76,8.64 -24.32,18.92 -37.48,27.03c-17.47,10.77 -36.1,18.01 -56.5,21.1c-14.81,2.24 -29.67,2.7 -44.52,2.76c-64,0.26 -128,0.14 -192,0.07c-6.99,0 -7.61,0.55 -7.54,7.54c0.13,12.5 0.02,25 0.05,37.5c0.02,5.87 0.67,6.49 6.49,6.5c16.17,0.01 32.34,0.26 48.5,-0.05c53.33,-1.01 106.67,0.07 160,-0.59c13.77,-0.17 27.28,-2.98 40.02,-8.81c8.28,-3.78 16.2,-8.05 23.52,-13.49c3.5,-2.6 6.97,-5.11 7.87,-9.58c0.4,-2.03 1.94,-2.26 3.12,-2.94c22.01,-12.63 42.69,-27.17 62.48,-43.02c1.74,-1.39 3.62,-2.66 5.99,-2.77" fill="none" id="svg_2" opacity="1" stroke="#000000" stroke-linecap="round" stroke-linejoin="round" stroke-width="10"/>
  <path d="m483,1010c-5.82,1.66 -9.82,6.16 -14.44,9.58c-32.61,24.18 -65.07,48.58 -97.55,72.93c-7.05,5.28 -14,10.66 -21.01,15.99c-14.4,10.94 -30.82,17.02 -48.5,19.99c-12.25,2.05 -24.58,2.07 -37,2.23c-31.17,0.38 -62.34,-0.26 -93.5,0.41c-14.17,0.31 -28.33,0.28 -42.5,0.33c-33.33,0.12 -66.67,0.04 -100,0.04c-8.05,0 -9.1,1.36 -7.53,9.51c0.22,1.12 0.03,2.32 0.03,3.49c0,26.83 0.03,53.67 -0.08,80.5c-0.01,1.51 1.63,4.28 -1.92,4.5" fill="none" id="svg_3" opacity="1" stroke="#000000" stroke-linecap="round" stroke-linejoin="round" stroke-width="10"/>
  <path d="m721.5,694.5c-1.76,-1.78 -3.59,-1.1 -5.51,-0.27c-4.22,1.85 -8.48,3.95 -12.98,0.76c-1.45,-1.03 -3.02,-0.45 -4.51,-0.46c-27.5,-0.04 -55,-0.02 -82.5,-0.04c-2.39,0 -4.38,0.42 -6.57,1.91c-19.05,13.01 -38.11,26 -57.49,38.51c-11.72,7.57 -24.71,10.89 -38.94,10.73c-39,-0.41 -78.01,-0.56 -117,0.08c-13.99,0.23 -26.62,-2.1 -37.99,-10.24c-6.66,-4.78 -10.7,-11.96 -15.99,-17.99c-4.13,-4.71 -7.39,-10.22 -12.54,-13.97c-6.1,-4.44 -12.53,-7.47 -20.45,-8.28c-9.22,-0.94 -18.37,-0.67 -27.53,-0.68c-85,-0.1 -170,-0.05 -255,-0.08c-7.7,-0.01 -7.54,1.52 -7.53,7.02c0.06,33.67 0.03,67.33 0.03,101c0,26.33 0.07,52.67 -0.05,79c-0.03,6.83 0.86,13.62 0.19,20.51c-0.65,6.77 -0.14,13.66 -0.14,20.49c0,6.83 0,13.67 0,20.5c0,6.83 0,13.67 0,20.5c0,6.83 0,13.67 0,20.5c0,6.67 0,13.33 0,20c0,6.83 0,13.67 0,20.5c0,6.83 0,13.67 0,20.5c0,6.83 0,13.67 0,20.5c0,6.83 -0.59,13.73 0.14,20.49c1.15,10.73 -1.45,21.33 -0.39,32.01" fill="none" id="svg_4" opacity="1" stroke="#000000" stroke-linecap="round" stroke-linejoin="round" stroke-width="10"/>
  <path d="m1054,736.5c3.5,6.37 0.96,12.52 -1.07,18.48c-4.87,14.27 -15.08,24.85 -26.03,34.4c-16.77,14.62 -35.2,27.16 -52.95,40.55c-28.15,21.25 -56.65,42.03 -84.94,63.08c-32.2,23.96 -64.33,48 -96.52,71.98c-10.79,8.05 -21.75,15.89 -32.43,24.09c-2.99,2.29 -6.05,3.02 -9.56,2.92" fill="none" id="svg_5" opacity="1" stroke="#000000" stroke-linecap="round" stroke-linejoin="round" stroke-width="10"/>
  <path d="m1055.75,729.5c0.44,3.71 -0.05,6.4 -4.73,7.13c-3.74,0.59 -6.5,3.7 -9.48,5.92c-42.89,32.09 -85.65,64.36 -128.56,96.43c-40.92,30.6 -81.98,61.02 -122.98,91.52c-8.04,5.97 -13.7,14.13 -19.37,22.09c-6.87,9.62 -12.84,19.88 -19.09,29.93c-1.29,2.07 -2.53,4.22 -1.61,7c0.56,1.75 -0.46,3.15 -1.86,4.55c-2.74,2.76 -4.92,6.07 -7.63,8.88c-1.61,1.67 -2.25,3.36 -1.94,5.55" fill="none" id="svg_6" opacity="1" stroke="#000000" stroke-linecap="round" stroke-linejoin="round" stroke-width="10"/>
  <path d="m331,1200c-7.47,-3.12 -14.17,1.04 -20.95,2.69c-8.46,2.06 -16.9,3.81 -25.54,4.88c-15.31,1.89 -30.67,1.16 -46.01,1.44c-59,1.07 -118,0.21 -177,0.49" fill="none" id="svg_7" opacity="1" stroke="#000000" stroke-linecap="round" stroke-linejoin="round" stroke-width="10"/>
  <path d="m20.5,1266c1.42,5.82 1.65,6.07 8,5.99c77.83,-0.94 155.67,-0.12 233.5,-0.66c13.89,-0.1 27.81,-2.13 41.49,-4.89c11.5,-2.31 22.83,-5.25 34.05,-8.82c16.19,-5.17 31.6,-11.97 46.46,-20.12c2,-1.09 4,-2.17 6,-3.25" fill="none" id="svg_8" opacity="1" stroke="#000000" stroke-linecap="round" stroke-linejoin="round" stroke-width="10"/>
  <path d="m715.5,971.5c-3.33,3.33 -6.64,6.7 -10.01,9.99c-3.88,3.8 -7.24,7.71 -13.44,8.8c-6.13,1.09 -10.51,6.57 -15.5,10.28c-25.78,19.18 -51.33,38.67 -77.07,57.91c-23.09,17.27 -46.32,34.34 -69.48,51.52c-27.17,20.16 -54.35,40.31 -81.46,60.55c-2.3,1.71 -4.56,3.77 -5.04,6.95" fill="none" id="svg_9" opacity="1" stroke="#000000" stroke-linecap="round" stroke-linejoin="round" stroke-width="10"/>
  <path d="m951,769.5c-6.1,-3.94 -12.94,-2.32 -19.5,-2.36c-1.93,-0.01 -4,0.34 -6,0.34c-47.17,0.03 -94.33,0.06 -141.5,-0.07c-2.86,0 -5.4,0.52 -7.46,2.14c-22.3,17.5 -45.39,33.92 -68.01,50.98c-6.67,5.03 -4.87,6.18 -1.02,10.96c13.14,16.35 26.29,32.7 39.5,49c6.93,8.56 13.98,17.02 21.01,25.5c0.75,0.91 1.7,1.65 1.48,3.01" fill="none" id="svg_10" opacity="1" stroke="#000000" stroke-linecap="round" stroke-linejoin="round" stroke-width="10"/>
  <path d="m698,989.5c1.14,3.01 0.52,6.01 -1.06,8.46c-14.98,23.28 -27.86,47.82 -42.86,71.09c-12.75,19.81 -27.89,37.5 -45.12,53.4c-26.79,24.72 -57.08,44.99 -85.91,67.11c-2.65,2.04 -5.06,2.11 -8.06,1.49c-12.42,-2.6 -24.89,-4.94 -37.48,-6.61c-8.49,-1.12 -16.9,-2.9 -25.51,-2.94c-0.33,0 -0.75,0.13 -0.99,-0.02c-4.69,-3.08 -9.68,-3.78 -15.01,-1.98" fill="none" id="svg_11" opacity="1" stroke="#000000" stroke-linecap="round" stroke-linejoin="round" stroke-width="10"/>
  <path d="m294.5,945.5c8.67,-6.83 17.35,-13.64 25.99,-20.52c1.93,-1.54 3.92,-3.12 5.44,-5.03c1.68,-2.11 1.78,-4.91 0.01,-6.9c-6.21,-6.96 -11.51,-14.73 -18.46,-21.03c-3.64,-3.29 -7.99,-5.03 -12.98,-5.02c-15.17,0.01 -30.33,-0.01 -45.5,0.02c-1.01,0 -2.01,0.23 -3.25,0.39c0,36.09 0,72.09 0,108.7c-24.25,-0.41 -48.25,0.53 -72.25,-0.61" fill="none" id="svg_12" opacity="1" stroke="#000000" stroke-linecap="round" stroke-linejoin="round" stroke-width="3"/>
  <path d="m493.5,993c-1.33,-1.5 -2.96,-2.84 -3.9,-4.55c-0.7,-1.27 -1.43,-1.63 -2.6,-1.43c-5,0.84 -9.96,0.5 -15.01,0.33c-5.07,-0.18 -10.28,0.37 -15.49,0.27c-10.66,-0.22 -21.33,0.15 -32,0.41c-5.02,0.12 -9.83,-1.29 -15.02,-0.72c-12.49,1.36 -23.6,6.15 -33.38,13.33c-19.69,14.47 -38.93,29.56 -57.62,45.33c-15.56,13.13 -31.12,26.28 -47.07,38.91c-6.78,5.37 -15.01,7.59 -23.89,8.34c-8.37,0.7 -16.68,0.57 -25.02,0.76c-2.54,0.06 -5.19,0.44 -7.46,-1.03c-0.73,-0.48 -1.38,-0.51 -2.04,-0.43c-18.8,2.44 -37.67,0.29 -56.5,0.92c-4.08,0.14 -5.49,-1.92 -5.49,-6.94c-0.02,-27.17 0,-54.33 -0.02,-81.5c0,-4.5 -0.16,-9 -0.24,-13.5" fill="none" id="svg_13" opacity="1" stroke="#000000" stroke-linecap="round" stroke-linejoin="round" stroke-width="11"/>
  <path d="m1059.5,267c1.61,-1.55 3.63,-0.99 5.5,-0.98c24.83,0.14 49.67,0.3 74.5,0.49c2.32,0.02 4.6,-0.03 6.82,-1.15c0.96,-2.11 0.67,-4.5 0.67,-6.86c0.01,-20.17 0.02,-40.33 0.01,-60.5c-0.01,-6.23 -0.77,-6.99 -7,-7c-15,-0.01 -30.04,-0.65 -44.99,0.22c-10.18,0.6 -20.34,0.53 -30.51,0.76c-1.71,0.04 -3.56,0.48 -5,-0.98" fill="none" id="svg_14" opacity="1" stroke="#000000" stroke-linecap="round" stroke-linejoin="round" stroke-width="11"/>
  <path d="m961.5,766.75c-2.33,0.58 -4.64,1.33 -7.01,1.69c-1.39,0.2 -2.98,0.67 -3.4,1.6c-4.36,9.69 -14.09,13.46 -21.71,19.3c-27.03,20.74 -54.56,40.81 -81.88,61.16c-23.68,17.65 -47.34,35.33 -70.99,53.01c-2.18,1.63 -4.31,3.29 -7.01,3.99" fill="none" id="svg_15" opacity="1" stroke="#000000" stroke-linecap="round" stroke-linejoin="round" stroke-width="10"/>
  <path d="m670.5,864.75c-5.24,0.04 -8.27,4.26 -11.9,6.89c-18.88,13.7 -37.43,27.87 -56.1,41.86c-29.16,21.84 -58.33,43.68 -87.5,65.49c-9.64,7.21 -19.35,14.33 -28.99,21.52c-3.1,2.31 -3.55,7.57 -1.01,10.49c13.33,15.33 26.86,30.5 39.85,46.12c3.01,3.62 7.48,6.32 8.65,11.38" fill="none" id="svg_16" opacity="1" stroke="#000000" stroke-linecap="round" stroke-linejoin="round" stroke-width="10"/>
  <path d="m653.5,826c-3.6,-0.37 -6.1,1.32 -9.13,3.3c-10.85,7.05 -20.9,15.17 -31.29,22.8c-13.43,9.87 -26.61,20.08 -39.96,30.06c-8.87,6.63 -18.78,9.84 -29.14,12.27c-8.18,1.92 -16.56,2.15 -24.98,2.12c-41.83,-0.12 -83.67,0.01 -125.5,-0.1c-7.99,-0.03 -16,-1.34 -23.44,-4.1c-8.94,-3.32 -15.46,-9.91 -20.08,-18.34c-8.2,-14.98 -21.35,-21.43 -37.98,-21.49c-22.33,-0.08 -44.67,-0.02 -67,-0.02" fill="none" id="svg_17" opacity="1" stroke="#000000" stroke-linecap="round" stroke-linejoin="round" stroke-width="10"/>
  <path d="m703.5,945.5c-2.06,-0.34 -3.88,0.33 -5.49,1.51c-24.85,18.15 -49.66,36.34 -74.51,54.48c-20.15,14.7 -40.33,29.34 -60.5,44.01" fill="none" id="svg_18" opacity="1" stroke="#000000" stroke-linecap="round" stroke-linejoin="round" stroke-width="10"/>
  <path d="m122.5,994c0,30.5 0,61 0,91.5c0,7.35 -0.67,7.7 -8,8.08c-7,0.37 -14.04,-1.29 -21.09,1.16c-2.18,0.76 -5.41,-1.31 -8.41,-1.3c-20.67,0.11 -41.33,0.06 -62,0.06" fill="none" id="svg_19" opacity="1" stroke="#000000" stroke-linecap="round" stroke-linejoin="round" stroke-width="10"/>
  <path d="m316,793.5c-31.5,0 -63,0 -94.5,0c-7.34,0 -8.23,0.66 -7.89,7.99c0.16,3.33 -2.01,6.21 -1.11,9.51" fill="none" id="svg_20" opacity="1" stroke="#000000" stroke-linecap="round" stroke-linejoin="round" stroke-width="10"/>
  <path d="m538.5,1068.5c-3.95,-0.81 -6.3,1.91 -9.01,3.98c-15.81,12.04 -31.65,24.03 -47.49,36.02c-18.5,14 -36.99,28.02 -55.52,41.98c-2.32,1.74 -4.65,3.78 -7.98,3.02" fill="none" id="svg_21" opacity="1" stroke="#000000" stroke-linecap="round" stroke-linejoin="round" stroke-width="10"/>
  <path d="m202.5,852.5c3.25,0.3 6.51,0.59 9.68,0.88c1.25,2.32 1.35,4.68 1.34,7.12c-0.05,9 0.01,18 -0.03,27c-0.02,5.93 -1.06,6.98 -6.99,6.99c-15.83,0.03 -31.69,0.57 -47.49,-0.2c-9.55,-0.46 -19,0.7 -28.51,0.3c-9.49,-0.4 -19.02,-0.51 -28.49,0.03c-8.87,0.51 -17.67,-0.43 -26.51,-0.17c-8.66,0.25 -17.33,0.05 -26,0.05c-8.83,0 -17.67,0 -26.5,0" fill="none" id="svg_22" opacity="1" stroke="#000000" stroke-linecap="round" stroke-linejoin="round" stroke-width="10"/>
  <path d="m847.5,688.75c-5.5,0.25 -11,0.7 -16.5,0.72c-29.83,0.07 -59.67,0.03 -89.5,0.02c-0.5,0 -1,-0.16 -1.5,-0.24" fill="none" id="svg_23" opacity="1" stroke="#000000" stroke-linecap="round" stroke-linejoin="round" stroke-width="12" transform="matrix(1 0 0 1 0 0)"/>
  <path d="m211.5,809c-2.17,0.17 -4.33,0.48 -6.5,0.48c-24.67,0.03 -49.33,0.02 -74,0.02c-2.38,0 -4.79,-0.27 -7.01,0.99c-0.59,0.33 -0.93,1.08 -2.01,0.56c-5.94,-2.87 -12.31,-1.44 -18.48,-1.48c-25,-0.17 -50,-0.06 -75,-0.09c-2,0 -4,-0.31 -6,-0.48" fill="none" id="svg_24" opacity="1" stroke="#000000" stroke-linecap="round" stroke-linejoin="round" stroke-width="10"/>
  <path d="m94.5,896.5c0,31.67 0,63.33 0,95" fill="none" id="svg_25" opacity="1" stroke="#000000" stroke-linecap="round" stroke-linejoin="round" stroke-width="10"/>
  <path d="m212,997.5c1.34,1.83 0.99,3.95 0.99,6c0.01,23.17 -0.02,46.33 0.03,69.5c0.02,6.33 0.31,12.67 0.48,19" fill="none" id="svg_26" opacity="1" stroke="#000000" stroke-linecap="round" stroke-linejoin="round" stroke-width="11"/>
  <path d="m1058.5,336.5c5.17,0 10.69,1.18 15.42,-0.26c8.55,-2.61 16.74,0.23 25.08,-0.17c10.23,-0.49 14.48,-4.47 14.48,-14.57c0,-3 -0.11,-6 -0.38,-9.01c-0.51,-5.83 -4.77,-10.05 -10.59,-10.56c-7.78,-0.68 -15.38,-1.27 -22.06,4.01c-0.79,0.63 -1.42,0.86 -1.49,2.06c-0.53,8.6 -1.26,17.21 2.04,25.5" fill="none" id="svg_27" opacity="1" stroke="#000000" stroke-linecap="round" stroke-linejoin="round" stroke-width="14"/>
  <path d="m90.5,1110.5c-14.33,0 -28.67,-0.22 -43,0.08c-8.82,0.19 -17.47,-0.36 -26,-2.58" fill="none" id="svg_28" opacity="1" stroke="#000000" stroke-linecap="round" stroke-linejoin="round" stroke-width="10"/>
  <path d="m122.5,812c0,11.5 -0.02,23 0.01,34.5c0.01,5.44 0.56,5.73 5.99,6.05c7.5,0.45 15.16,-1.52 22.5,1.45c4.29,-2.43 8.98,-1.2 13.5,-1.5" fill="none" id="svg_29" opacity="1" stroke="#000000" stroke-linecap="round" stroke-linejoin="round" stroke-width="10"/>
  <path d="m202,852.5c-2.11,-3.02 -1.44,-6.71 -2.34,-10.04c-1.09,-4.07 -3.04,-6.04 -7.13,-7.08c-6.28,-1.59 -12.31,-1.62 -18.55,0.03c-3.48,0.92 -5.5,2.85 -6.47,6.09c-1.92,6.49 -2.44,12.91 -0.12,19.54c1.23,3.51 2.97,5.54 6.59,6.53c5.86,1.6 11.61,1.72 17.53,0.48c4.85,-1.01 7.67,-3.66 8.51,-8.55c0.38,-2.18 0.98,-4.33 1.48,-6.5" fill="none" id="svg_30" opacity="1" stroke="#000000" stroke-linecap="round" stroke-linejoin="round" stroke-width="14"/>
  <path d="m569,943c12.83,16.33 25.67,32.67 38.5,49" fill="none" id="svg_31" opacity="1" stroke="#000000" stroke-linecap="round" stroke-linejoin="round" stroke-width="3"/>
  <path d="m512,897c0,9 -0.34,18.02 0.13,26.99c0.26,4.92 -1.29,8.28 -5.12,11.02c-9.03,6.46 -18.02,12.98 -27.01,19.5c-3.09,2.24 -6.83,1.33 -10,1.28c-18.67,-0.32 -37.33,-0.3 -56,0.06c-7.32,0.15 -14.67,-0.71 -22,0.16c-8.94,1.06 -17,4.41 -23.96,10.04c-5.79,4.68 -11.45,9.81 -17.33,14.05c-10.36,7.47 -19.94,15.87 -30.2,23.42c-7.38,5.43 -14,11.89 -22.01,16.48" fill="none" id="svg_32" opacity="1" stroke="#000000" stroke-linecap="round" stroke-linejoin="round" stroke-width="3"/>
  <path d="m508.5,932c-3.28,-1.15 -6.66,-0.49 -10,-0.49c-26.67,-0.02 -53.33,-0.09 -80,0.02c-14,0.06 -28,-0.55 -42,0.42c-9.13,0.63 -17.31,3.64 -24.45,9.11c-6.57,5.03 -12.48,10.92 -19.12,15.85c-5.93,4.39 -11.09,9.63 -16.94,14.07c-0.91,0.69 -1.88,1.24 -1.99,2.52" fill="none" id="svg_33" opacity="1" stroke="#000000" stroke-linecap="round" stroke-linejoin="round" stroke-width="4"/>
  <path d="m151,854.5c0,12.67 0,25.33 0,38" fill="none" id="svg_34" opacity="1" stroke="#000000" stroke-linecap="round" stroke-linejoin="round" stroke-width="11"/>
  <path d="m381.5,896c-1.09,6.81 -0.29,13.67 -0.47,20.5c-0.14,4.83 -0.03,9.67 -0.03,14.5" fill="none" id="svg_35" opacity="1" stroke="#000000" stroke-linecap="round" stroke-linejoin="round" stroke-width="3"/>
  <path d="m495,897c0,11.33 0,22.67 0,34" fill="none" id="svg_36" opacity="1" stroke="#000000" stroke-linecap="round" stroke-linejoin="round" stroke-width="3"/>
  <path d="m845,847c-9,-2.67 -18,-5.34 -27,-8c-4.29,-1.26 -7.45,1.41 -10.44,3.58c-5.37,3.89 -10.39,8.26 -15.56,12.42c-12,9.67 -24,19.33 -36,29" fill="none" id="svg_37" opacity="1" stroke="#000000" stroke-linecap="round" stroke-linejoin="round" stroke-width="3"/>
  <path d="m479,897c0,11.33 0,22.67 0,34" fill="none" id="svg_38" opacity="1" stroke="#000000" stroke-linecap="round" stroke-linejoin="round" stroke-width="3"/>
  <path d="m398,897c0,11.33 0,22.67 0,34" fill="none" id="svg_39" opacity="1" stroke="#000000" stroke-linecap="round" stroke-linejoin="round" stroke-width="3"/>
  <path d="m438,897c0,11.33 0,22.67 0,34" fill="none" id="svg_40" opacity="1" stroke="#000000" stroke-linecap="round" stroke-linejoin="round" stroke-width="3"/>
  <path d="m455,897c0,11.33 0,22.67 0,34" fill="none" id="svg_41" opacity="1" stroke="#000000" stroke-linecap="round" stroke-linejoin="round" stroke-width="3"/>
  <path d="m471,897c-0.8,11.16 -0.42,22.33 -0.5,33.5" fill="none" id="svg_42" opacity="1" stroke="#000000" stroke-linecap="round" stroke-linejoin="round" stroke-width="4"/>
  <path d="m446.5,897c0,11.17 0,22.33 0,33.5" fill="none" id="svg_43" opacity="1" stroke="#000000" stroke-linecap="round" stroke-linejoin="round" stroke-width="4"/>
  <path d="m389.5,897c-1.4,3.67 0.23,7.32 0.09,11c-0.29,7.49 -0.09,15 -0.09,22.5" fill="none" id="svg_44" opacity="1" stroke="#000000" stroke-linecap="round" stroke-linejoin="round" stroke-width="4"/>
  <path d="m503.5,897c0,11.17 0,22.33 0,33.5" fill="none" id="svg_45" opacity="1" stroke="#000000" stroke-linecap="round" stroke-linejoin="round" stroke-width="4"/>
  <path d="m1055,208c4.23,1.67 8.66,0.9 13,0.97c6.5,0.11 13,0.03 19.5,0.03" fill="none" id="svg_46" opacity="1" stroke="#000000" stroke-linecap="round" stroke-linejoin="round" stroke-width="3"/>
  <path d="m647,832.5c6.5,8.67 12.92,17.39 19.55,25.96c1.63,2.1 1.37,4.28 1.45,6.54" fill="none" id="svg_47" opacity="1" stroke="#000000" stroke-linecap="round" stroke-linejoin="round" stroke-width="3"/>
  <path d="m478.5,956c1.14,7.98 0.21,16 0.49,24c0.08,2.5 0.01,5 0.01,7.5" fill="none" id="svg_48" opacity="1" stroke="#000000" stroke-linecap="round" stroke-linejoin="round" stroke-width="3"/>
  <path d="m709.5,697.5c-1.42,5.65 -6.66,7.68 -10.53,10.97c-3.7,3.15 -7.52,6.2 -11.51,8.97c-2.45,1.69 -3.65,3.92 -4.46,6.56" fill="none" id="svg_49" opacity="1" stroke="#000000" stroke-linecap="round" stroke-linejoin="round" stroke-width="10"/>
  <path d="m405,956.5c0,10.33 0,20.67 0,31" fill="none" id="svg_50" opacity="1" stroke="#000000" stroke-linecap="round" stroke-linejoin="round" stroke-width="3"/>
  <path d="m1087.5,200.5c-10.33,0 -20.67,0 -31,0" fill="none" id="svg_51" opacity="1" stroke="#000000" stroke-linecap="round" stroke-linejoin="round" stroke-width="4"/>
  <path d="m462,956.5c0,10.33 0,20.67 0,31" fill="none" id="svg_52" opacity="1" stroke="#000000" stroke-linecap="round" stroke-linejoin="round" stroke-width="3"/>
  <path d="m438,956.5c0,10.33 0,20.67 0,31" fill="none" id="svg_53" opacity="1" stroke="#000000" stroke-linecap="round" stroke-linejoin="round" stroke-width="3"/>
  <path d="m422,956.5c0,10.33 0,20.67 0,31" fill="none" id="svg_54" opacity="1" stroke="#000000" stroke-linecap="round" stroke-linejoin="round" stroke-width="3"/>
  <path d="m1087,257.5c-10.17,0 -20.33,0 -30.5,0" fill="none" id="svg_55" opacity="1" stroke="#000000" stroke-linecap="round" stroke-linejoin="round" stroke-width="4"/>
  <path d="m446.5,956.5c0,7.67 0.01,15.33 0,23c-0.01,2.6 0.18,5.16 1.5,7.5" fill="none" id="svg_56" opacity="1" stroke="#000000" stroke-linecap="round" stroke-linejoin="round" stroke-width="4"/>
  <path d="m343,869c-8.82,5.87 -15.83,13.87 -23.99,20.52c-2.09,1.71 -4.01,3.65 -6.01,5.48" fill="none" id="svg_57" opacity="1" stroke="#000000" stroke-linecap="round" stroke-linejoin="round" stroke-width="3"/>
  <path d="m1086.5,226c-9.88,-2.89 -20,-0.93 -30,-1.5" fill="none" id="svg_58" opacity="1" stroke="#000000" stroke-linecap="round" stroke-linejoin="round" stroke-width="4"/>
  <path d="m413.5,956.5c0,10 0,20 0,30" fill="none" id="svg_59" opacity="1" stroke="#000000" stroke-linecap="round" stroke-linejoin="round" stroke-width="4"/>
  <path d="m1087.5,249c-8,0 -16,0.01 -24,-0.01c-1.91,-0.01 -3.8,-0.07 -5.5,1.01" fill="none" id="svg_60" opacity="1" stroke="#000000" stroke-linecap="round" stroke-linejoin="round" stroke-width="3"/>
  <path d="m347,876c-9.83,8.67 -19.67,17.33 -29.5,26" fill="none" id="svg_61" opacity="1" stroke="#000000" stroke-linecap="round" stroke-linejoin="round" stroke-width="3"/>
  <path d="m587,876c7.33,9.67 14.67,19.33 22,29" fill="none" id="svg_62" opacity="1" stroke="#000000" stroke-linecap="round" stroke-linejoin="round" stroke-width="3"/>
  <path d="m470.5,956.5c0,5.67 0.1,11.34 -0.03,17c-0.1,4.1 0.09,8.12 1.53,12" fill="none" id="svg_63" opacity="1" stroke="#000000" stroke-linecap="round" stroke-linejoin="round" stroke-width="4"/>
  <path d="m639,834.5c0.39,1.37 0.35,2.81 1.47,4.03c6.97,7.54 12.36,16.31 18.53,24.47" fill="none" id="svg_64" opacity="1" stroke="#000000" stroke-linecap="round" stroke-linejoin="round" stroke-width="3"/>
  <path d="m422,902.5c0,9.5 0,19 0,28.5" fill="none" id="svg_65" opacity="1" stroke="#000000" stroke-linecap="round" stroke-linejoin="round" stroke-width="3"/>
  <path d="m352,883c-9.33,8.33 -18.67,16.67 -28,25" fill="none" id="svg_66" opacity="1" stroke="#000000" stroke-linecap="round" stroke-linejoin="round" stroke-width="3"/>
  <path d="m594,871c7,9.33 14,18.67 21,28" fill="none" id="svg_67" opacity="1" stroke="#000000" stroke-linecap="round" stroke-linejoin="round" stroke-width="3"/>
  <path d="m568,891c7,9.33 14,18.67 21,28" fill="none" id="svg_68" opacity="1" stroke="#000000" stroke-linecap="round" stroke-linejoin="round" stroke-width="3"/>
  <path d="m614,857c7,9.33 14,18.67 21,28" fill="none" id="svg_69" opacity="1" stroke="#000000" stroke-linecap="round" stroke-linejoin="round" stroke-width="3"/>
  <path d="m575,886c6.94,9.22 13.43,18.77 21,27.5" fill="none" id="svg_70" opacity="1" stroke="#000000" stroke-linecap="round" stroke-linejoin="round" stroke-width="3"/>
  <path d="m633,842c7,9.33 14,18.67 21,28" fill="none" id="svg_71" opacity="1" stroke="#000000" stroke-linecap="round" stroke-linejoin="round" stroke-width="3"/>
  <path d="m621,852c6.67,9 13.33,18 20,27" fill="none" id="svg_72" opacity="1" stroke="#000000" stroke-linecap="round" stroke-linejoin="round" stroke-width="3"/>
  <path d="m413.5,903.5c0,9 0,18 0,27" fill="none" id="svg_73" opacity="1" stroke="#000000" stroke-linecap="round" stroke-linejoin="round" stroke-width="4"/>
  <path d="m601,867c7.77,8.4 13.75,18.19 21,27" fill="none" id="svg_74" opacity="1" stroke="#000000" stroke-linecap="round" stroke-linejoin="round" stroke-width="3"/>
  <path d="m315.5,930c6.33,8.17 12.67,16.33 19,24.5" fill="none" id="svg_75" opacity="1" stroke="#000000" stroke-linecap="round" stroke-linejoin="round" stroke-width="3"/>
  <path d="m322.5,925c5.77,8.37 12.3,16.15 18.75,24" fill="none" id="svg_76" opacity="1" stroke="#000000" stroke-linecap="round" stroke-linejoin="round" stroke-width="3"/>
  <path d="m309,936c6.33,7.83 12.67,15.67 19,23.5" fill="none" id="svg_77" opacity="1" stroke="#000000" stroke-linecap="round" stroke-linejoin="round" stroke-width="3"/>
  <path d="m1087.5,233c-10.33,0.17 -20.67,0.33 -31,0.5" fill="none" id="svg_78" opacity="1" stroke="#000000" stroke-linecap="round" stroke-linejoin="round" stroke-width="3"/>
  <path d="m1088.5,193c-1.13,9.15 -0.35,18.33 -0.46,27.5c-0.15,12.33 0.17,24.67 -0.21,36.99c-0.08,2.63 -0.17,5.05 0.67,7.51" fill="none" id="svg_79" opacity="1" stroke="#000000" stroke-linecap="round" stroke-linejoin="round" stroke-width="11"/>
  <path d="m364.5,970c5.83,7.67 12.48,14.71 17.5,23" fill="none" id="svg_80" opacity="1" stroke="#000000" stroke-linecap="round" stroke-linejoin="round" stroke-width="3"/>
  <path d="m357.5,975c5.83,7.33 11.67,14.67 17.5,22" fill="none" id="svg_81" opacity="1" stroke="#000000" stroke-linecap="round" stroke-linejoin="round" stroke-width="3"/>
  <path d="m320,1005.5c5.33,7.17 11.58,13.65 16,21.5" fill="none" id="svg_82" opacity="1" stroke="#000000" stroke-linecap="round" stroke-linejoin="round" stroke-width="3"/>
  <path d="m351.5,981c5.5,7 11,14 16.5,21" fill="none" id="svg_83" opacity="1" stroke="#000000" stroke-linecap="round" stroke-linejoin="round" stroke-width="3"/>
  <path d="m313.5,1011c5.5,7 11,14 16.5,21" fill="none" id="svg_84" opacity="1" stroke="#000000" stroke-linecap="round" stroke-linejoin="round" stroke-width="3"/>
  <path d="m338.5,990c5.67,7 11.33,14 17,21" fill="none" id="svg_85" opacity="1" stroke="#000000" stroke-linecap="round" stroke-linejoin="round" stroke-width="3"/>
  <path d="m332.5,996c5.5,7 11,14 16.5,21" fill="none" id="svg_86" opacity="1" stroke="#000000" stroke-linecap="round" stroke-linejoin="round" stroke-width="3"/>
  <path d="m306.5,1016c5.5,6.83 11,13.67 16.5,20.5" fill="none" id="svg_87" opacity="1" stroke="#000000" stroke-linecap="round" stroke-linejoin="round" stroke-width="3"/>
  <path d="m1058,304.5c4.33,0 8.67,0.09 13,-0.03c2.75,-0.08 5.26,0.39 7.5,2.03" fill="none" id="svg_88" opacity="1" stroke="#000000" stroke-linecap="round" stroke-linejoin="round" stroke-width="10"/>
  <path d="m779.5,866c5.17,6.67 10.33,13.33 15.5,20" fill="none" id="svg_89" opacity="1" stroke="#000000" stroke-linecap="round" stroke-linejoin="round" stroke-width="3"/>
  <path d="m805.5,846c5.17,6.67 10.33,13.33 15.5,20" fill="none" id="svg_90" opacity="1" stroke="#000000" stroke-linecap="round" stroke-linejoin="round" stroke-width="3"/>
  <path d="m812.5,841c5.17,6.67 10.33,13.33 15.5,20" fill="none" id="svg_91" opacity="1" stroke="#000000" stroke-linecap="round" stroke-linejoin="round" stroke-width="3"/>
  <path d="m786.5,861c5,6.33 10,12.67 15,19" fill="none" id="svg_92" opacity="1" stroke="#000000" stroke-linecap="round" stroke-linejoin="round" stroke-width="3"/>
  <path d="m798.5,851c5.17,6.33 10.33,12.67 15.5,19" fill="none" id="svg_93" opacity="1" stroke="#000000" stroke-linecap="round" stroke-linejoin="round" stroke-width="3"/>
  <path d="m167.5,1279.5c1.24,-0.72 2.52,-1.04 4,-1.03c11,0.06 22,0.03 33,0.03" fill="none" id="svg_94" opacity="1" stroke="#000000" stroke-linecap="round" stroke-linejoin="round" stroke-width="2"/>
  <path d="m767.5,876c4.78,6.05 9.03,12.51 14.5,18" fill="none" id="svg_95" opacity="1" stroke="#000000" stroke-linecap="round" stroke-linejoin="round" stroke-width="3"/>
  <path d="m761,881.5c4.67,5.83 9.33,11.67 14,17.5" fill="none" id="svg_96" opacity="1" stroke="#000000" stroke-linecap="round" stroke-linejoin="round" stroke-width="3"/>
  <path d="m93,1095.5c-0.68,7.32 -1.82,14.63 -0.5,22" fill="none" id="svg_97" opacity="1" stroke="#000000" stroke-linecap="round" stroke-linejoin="round" stroke-width="10"/>
  <path d="m20.5,1230c1.16,5.13 -0.21,10.4 0.61,15.48c0.92,5.74 -0.49,11.35 -0.14,17.02c0.08,1.34 0.65,3.3 -1.97,3" fill="none" id="svg_98" opacity="1" stroke="#000000" stroke-linecap="round" stroke-linejoin="round" stroke-width="11"/>
  <path d="m520.5,739c-4.8,-0.48 -2.72,4.21 -4.5,6" fill="none" id="svg_99" opacity="1" stroke="#000000" stroke-linecap="round" stroke-linejoin="round" stroke-width="3"/>
  <path d="m320,692.5c1.88,-3.11 1.4,-3.88 -2.5,-4" fill="none" id="svg_100" opacity="1" stroke="#000000" stroke-linecap="round" stroke-linejoin="round" stroke-width="2"/>
  <path d="m1149.5,826c1.23,1.79 5.31,-0.49 5,3.5" fill="none" id="svg_101" opacity="1" stroke="#000000" stroke-linecap="round" stroke-linejoin="round" stroke-width="2"/>
  <path d="m818.5,1084.5c-1.33,-2.34 -3.31,-2.32 -5.5,-1.5" fill="none" id="svg_102" opacity="1" stroke="#000000" stroke-linecap="round" stroke-linejoin="round" stroke-width="2"/>
  <path d="m1099.5,880c1.33,2.83 2.67,5.67 4,8.5" fill="none" id="svg_103" opacity="1" stroke="#000000" stroke-linecap="round" stroke-linejoin="round" stroke-width="4"/>
  <path d="m1049.5,16.5c1.2,2.06 3.57,0.21 5,1.5" fill="none" id="svg_104" opacity="1" stroke="#000000" stroke-linecap="round" stroke-linejoin="round" stroke-width="2"/>
  <path d="m810,1079.5c0.27,1.57 1.62,2.38 2.43,3.55c1.57,2.26 -0.14,2.52 -1.93,2.45" fill="none" id="svg_105" opacity="1" stroke="#000000" stroke-linecap="round" stroke-linejoin="round" stroke-width="2"/>
  <path d="m637,1161c0.69,1.44 0.75,2.95 0.5,4.5" fill="none" id="svg_106" opacity="1" stroke="#000000" stroke-linecap="round" stroke-linejoin="round" stroke-width="2"/>
  <path d="m790.5,1091.5c-2.72,2.62 -4.49,2.49 -6.5,-0.5" fill="none" id="svg_107" opacity="1" stroke="#000000" stroke-linecap="round" stroke-linejoin="round" stroke-width="3"/>
  <path d="m368,1250c0.5,2.17 1,4.33 1.5,6.5" fill="none" id="svg_108" opacity="1" stroke="#000000" stroke-linecap="round" stroke-linejoin="round" stroke-width="2"/>
  <path d="m16,1231c-2.17,0.45 -1.33,2.19 -1.5,3.5" fill="none" id="svg_109" opacity="1" stroke="#000000" stroke-linecap="round" stroke-linejoin="round" stroke-width="2"/>
  <path d="m1054.5,10.5c0.5,2 1,4 1.5,6" fill="none" id="svg_110" opacity="1" stroke="#000000" stroke-linecap="round" stroke-linejoin="round" stroke-width="3"/>
  <path d="m640.5,1166.5c-2.33,0.17 -4.67,-2.34 -7,0" fill="none" id="svg_111" opacity="1" stroke="#000000" stroke-linecap="round" stroke-linejoin="round" stroke-width="2"/>
  <path d="m361,1253c-0.34,1.48 2.77,3.35 -0.5,4.5" fill="none" id="svg_112" opacity="1" stroke="#000000" stroke-linecap="round" stroke-linejoin="round" stroke-width="2"/>
  <path d="m1122,864c1.17,0.17 2.33,0.33 3.5,0.5" fill="none" id="svg_113" opacity="1" stroke="#000000" stroke-linecap="round" stroke-linejoin="round" stroke-width="2"/>
  <path d="m697,1125c0.33,0.83 0.55,1.74 1.02,2.49c1.36,2.14 -0.09,2.04 -1.52,2.01" fill="none" id="svg_114" opacity="1" stroke="#000000" stroke-linecap="round" stroke-linejoin="round" stroke-width="2"/>
  <g class="map-point" id="svg_115">
   <path d="m1109.12,669.38c0.39,0.39 1.03,0.39 1.42,0l6.36,-6.37c0.39,-0.39 0.39,-1.02 0,-1.41c-0.39,-0.39 -1.02,-0.39 -1.41,0l-5.66,5.66l-5.66,-5.66c-0.39,-0.39 -1.02,-0.39 -1.41,0c-0.39,0.39 -0.39,1.02 0,1.41l6.36,6.37zm-0.29,-89.71l0,89l2,0l0,-89l-2,0z" fill="black" id="svg_152"/>
   <path d="m751.54,895.38c0.39,-0.39 0.39,-1.03 0,-1.42l-6.37,-6.36c-0.39,-0.39 -1.02,-0.39 -1.41,0c-0.39,0.39 -0.39,1.02 0,1.41l5.66,5.66l-5.66,5.66c-0.39,0.39 -0.39,1.02 0,1.41c0.39,0.39 1.02,0.39 1.41,0l6.37,-6.36zm-80.71,0.29l80,0l0,-2l-80,0l0,2z" fill="black" id="svg_153" transform="rotate(-123.822 711.333 894.667)"/>
   <path d="m1084.54,741.96c-0.39,-0.39 -1.03,-0.39 -1.42,0l-6.36,6.37c-0.39,0.39 -0.39,1.02 0,1.41c0.39,0.39 1.02,0.39 1.41,0l5.66,-5.66l5.66,5.66c0.39,0.39 1.02,0.39 1.41,0c0.39,-0.39 0.39,-1.02 0,-1.41l-6.36,-6.37zm0.29,78.71l0,-78l-2,0l0,78l2,0z" fill="black" id="svg_154" transform="rotate(-150.079 1083.83 781.165)"/>
   <path d="m1157.54,406.38c0.39,-0.39 0.39,-1.03 0,-1.42l-6.37,-6.36c-0.39,-0.39 -1.02,-0.39 -1.41,0c-0.39,0.39 -0.39,1.02 0,1.41l5.66,5.66l-5.66,5.66c-0.39,0.39 -0.39,1.02 0,1.41c0.39,0.39 1.02,0.39 1.41,0l6.37,-6.36zm-87.71,0.29l87,0l0,-2l-87,0l0,2z" fill="black" id="svg_155" transform="rotate(90 1114 405.667)"/>
   <path d="m971.62,946.38c0.39,0.39 1.03,0.39 1.42,0l6.36,-6.37c0.39,-0.39 0.39,-1.02 0,-1.41c-0.39,-0.39 -1.02,-0.39 -1.41,0l-5.66,5.66l-5.66,-5.66c-0.39,-0.39 -1.02,-0.39 -1.41,0c-0.39,0.39 -0.39,1.02 0,1.41l6.36,6.37zm-0.29,-89.71l0,89l2,0l0,-89l-2,0z" fill="black" id="svg_157" transform="rotate(54.8771 972.332 901.667)"/>
   <path d="m779.43,1078.8c0.39,0.39 1.03,0.39 1.42,0l6.36,-6.37c0.39,-0.39 0.39,-1.02 0,-1.41c-0.39,-0.39 -1.02,-0.39 -1.41,0l-5.66,5.66l-5.66,-5.66c-0.39,-0.39 -1.02,-0.39 -1.41,0c-0.39,0.39 -0.39,1.02 0,1.41l6.36,6.37zm-0.29,-89.71l0,89l2,0l0,-89l-2,0z" fill="black" id="svg_158" transform="rotate(65.7274 780.136 1034.09)"/>
   <path d="m639.43,829.8c0.39,0.39 1.03,0.39 1.42,0l6.36,-6.37c0.39,-0.39 0.39,-1.02 0,-1.41c-0.39,-0.39 -1.02,-0.39 -1.41,0l-5.66,5.66l-5.66,-5.66c-0.39,-0.39 -1.02,-0.39 -1.41,0c-0.39,0.39 -0.39,1.02 0,1.41l6.36,6.37zm-0.29,-89.71l0,89l2,0l0,-89l-2,0z" fill="black" id="svg_159" transform="rotate(-107.47 640.136 785.093)"/>
   <path d="m860.75,785.33c0.39,0.39 1.03,0.39 1.42,0l6.36,-6.37c0.39,-0.39 0.39,-1.02 0,-1.41c-0.39,-0.39 -1.02,-0.39 -1.41,0l-5.66,5.66l-5.66,-5.66c-0.39,-0.39 -1.02,-0.39 -1.41,0c-0.39,0.39 -0.39,1.02 0,1.41l6.36,6.37zm-0.29,-89.71l0,89l2,0l0,-89l-2,0z" fill="black" id="svg_161" transform="rotate(-91.7168 861.458 740.618)"/>
   <path class="map-point" d="m1138.15,382.21l0,-38l38,0l0,38l-38,0z" fill="#003f7f" id="item-1" stroke="#7a7171"/>
   <path class="map-point" d="m1051.33,434.67l0,-38l38,0l0,38l-38,0z" fill="#003f7f" id="item-2" stroke="#7a7171"/>
   <path class="map-point" d="m1138.33,486.67l0,-38l38,0l0,38l-38,0z" fill="#003f7f" id="item-3" stroke="#7a7171"/>
   <path class="map-point" d="m1050.33,535.67l0,-38l38,0l0,38l-38,0z" fill="#003f7f" id="item-4" stroke="#7a7171"/>
   <path class="map-point" d="m1139.33,599.67l0,-38l38,0l0,38l-38,0z" fill="#003f7f" id="item-5" stroke="#7a7171"/>
   <path class="map-point" d="m1017.86,651.33l23,-40.25l23,40.25z" fill="#003f7f" id="item-6" stroke="#7a7171"/>
   <path class="map-point" d="m1142.33,744.67l0,-38l38,0l0,38l-38,0z" fill="#003f7f" id="item-7" stroke="#7a7171"/>
   <path class="map-point" d="m1042.33,900.67l0,-38l38,0l0,38l-38,0z" fill="#003f7f" id="item-8" stroke="#7a7171"/>
   <path class="map-point" d="m927.33,883.79l23,-40.25l23,40.25z" fill="#003f7f" id="item-9" stroke="#7a7171"/>
   <path class="map-point" d="m896.33,1003.79l23,-40.25l23,40.25z" fill="#003f7f" id="item-10" stroke="#7a7171"/>
   <path class="map-point" d="m800.33,989.67l0,-38l38,0l0,38l-38,0z" fill="#003f7f" id="item-11" stroke="#7a7171"/>
   <path class="map-point" d="m676.33,825.67l0,-38l38,0l0,38l-38,0z" fill="#003f7f" id="item-12" stroke="#7a7171"/>
   <path class="map-point" d="m548.33,758.79l23,-40.25l23,40.25z" fill="#003f7f" id="item-13" stroke="#7a7171"/>
   <path class="map-point" d="m668.33,733.67l0,-38l38,0l0,38l-38,0z" fill="#003f7f" id="item-14" stroke="#7a7171"/>
   <path class="map-point" d="m929.33,725.79l23,-40.25l23,40.25z" fill="#003f7f" id="item-15" stroke="#7a7171"/>
  </g>
 </g>
</svg>