<?xml version="1.0" encoding="UTF-8" standalone="no" ?>
<!DOCTYPE svg PUBLIC "-//W3C//DTD SVG 1.1//EN" "http://www.w3.org/Graphics/SVG/1.1/DTD/svg11.dtd">
<svg xmlns="http://www.w3.org/2000/svg" xmlns:xlink="http://www.w3.org/1999/xlink" version="1.1" width="1080" height="1080" viewBox="0 0 1080 1080" xml:space="preserve">
<desc>Created with Fabric.js 5.2.4</desc>
<defs>
</defs>
<g transform="matrix(1 0 0 1 540 540)" id="2bf38186-8381-41ed-8873-33b46ca9338e"  >
<rect style="stroke: none; stroke-width: 1; stroke-dasharray: none; stroke-linecap: butt; stroke-dashoffset: 0; stroke-linejoin: miter; stroke-miterlimit: 4; fill: rgb(255,227,227); fill-rule: nonzero; opacity: 1; visibility: hidden;" vector-effect="non-scaling-stroke"  x="-540" y="-540" rx="0" ry="0" width="1080" height="1080" />
</g>
<g transform="matrix(1 0 0 1 540 540)" id="6c0c3845-5f6f-45ce-bc15-d4b0ad15c450"  >
</g>
<g transform="matrix(0.9 0 0 0.9 540 540)"  >
<g style=""   >
		<g transform="matrix(1 0 0 1 0.16 -12.52)"  >
<path style="stroke: rgb(0,0,0); stroke-width: 10; stroke-dasharray: none; stroke-linecap: round; stroke-dashoffset: 0; stroke-linejoin: round; stroke-miterlimit: 4; fill: none; fill-rule: nonzero; opacity: 1;" vector-effect="non-scaling-stroke"  transform=" translate(-598.16, -634.49)" d="M 22.5 1251.5 C 97 1251.5 171.5 1251.496582 246 1251.502563 C 262.278198 1251.503784 278.393311 1249.918945 294.518127 1247.627563 C 313.945038 1244.866821 332.688538 1239.805542 350.982239 1232.952515 C 362.943542 1228.47168 374.554321 1223.155151 385.493774 1216.489746 C 388.131836 1214.882202 391.129425 1214.660034 394.002197 1214.569092 C 407.19278 1214.151489 420.367432 1214.84375 433.495331 1216.050781 C 445.207581 1217.127686 456.901184 1218.417847 468.506958 1220.460449 C 481.268219 1222.706299 493.945068 1225.324585 506.488037 1228.546631 C 511.892883 1229.934937 517.164062 1231.841675 522.501038 1233.49646 C 525.561462 1234.445435 527.924133 1233.575195 530.559448 1231.578491 C 561.299866 1208.289185 592.302551 1185.34436 622.937317 1161.918091 C 636.36261 1151.651855 650.194031 1142.171143 665.514465 1135.031128 C 689.150024 1124.015869 713.150757 1113.862061 737.472961 1104.430298 C 759.359497 1095.943237 781.135437 1087.155151 803.51593 1080.050293 C 833.068909 1070.668457 859.22644 1055.045166 884.547424 1037.568726 C 918.231384 1014.319946 950.524902 989.199829 983.461975 964.948364 C 1007.323303 947.379395 1030.79248 929.278748 1054.516235 911.521729 C 1067.592529 901.734192 1080.609131 891.841309 1094.052124 882.575745 C 1114.638916 868.386475 1131.307617 850.74646 1144.594238 829.559082 C 1158.272461 807.747253 1167.072754 784.133118 1171.318481 758.96936 C 1174.490356 740.170654 1174.14502 721.04364 1173.009033 701.999451 C 1172.939697 700.836914 1173 699.666687 1173 698.5 C 1173 557.166687 1173 415.833344 1173 274.5 C 1173 191.333328 1172.981934 108.166649 1173.039062 25.000027 C 1173.043091 19.159346 1173.362061 17.460388 1165.5 17.474279 C 1131.5 17.534351 1097.5 17.534351 1063.5 17.474279 C 1055.637939 17.460388 1055.952759 19.159222 1055.960205 25.000051 C 1056.028076 77.999962 1056 131 1055.999268 184 C 1055.999268 186.217224 1056.324585 188.518829 1054.982788 190.488251 C 1053.584229 192.540863 1053.628296 194.433868 1054.95874 196.526276 C 1055.68689 197.671631 1056.355103 198.993195 1056.000488 200.500122 C 1052.902344 213.666595 1057.982666 226.879242 1055.86438 239.978058 C 1054.980591 245.443359 1054.991577 250.650024 1055.936768 256.011139 C 1056.188354 257.437408 1056.130005 259.2901 1055.408325 260.442627 C 1053.629028 263.284302 1053.589966 265.736542 1055.421021 268.551361 C 1056.079956 269.564453 1055.960083 271.16507 1055.977051 272.500305 C 1056.036255 277.166199 1056.324097 281.861267 1055.925049 286.493561 C 1055.305542 293.684631 1056.894409 300.778809 1056.153198 308.015686 C 1055.443604 314.943024 1055.965576 322.000275 1056.018799 328.999847 C 1056.037109 331.411896 1055.339966 334.071777 1057.520142 335.976959 C 1058.808472 337.102905 1057.709961 338.260406 1057.40271 338.957123 C 1055.606323 343.03183 1056.005737 347.27829 1056.005249 351.5 C 1055.997803 422.166656 1055.966553 492.833374 1056.025024 563.5 C 1056.038574 579.831787 1051.883179 595.278931 1045.359863 609.937622 C 1036.125732 630.687866 1022.907166 648.735291 1004.975403 662.968994 C 993.337463 672.206848 980.517578 679.37561 966.519836 684.55365 C 944.678101 692.633301 922.026123 694.650024 898.999878 694.520691 C 880.684998 694.417847 880.738159 694.570923 866.980347 704.973999 C 858.419495 711.447266 849.588135 717.563538 841.051025 724.066956 C 838.685669 725.868835 836.365295 726.538452 833.499939 726.533997 C 799.666687 726.481079 765.833252 726.456055 732.000061 726.522949 C 719.499756 726.547668 707.000183 726.851929 694.499878 726.987915 C 691.042419 727.025513 687.491638 727.463379 684.490173 725.012085 C 682.97699 723.776245 681.493713 725.026672 679.99939 725.246033 C 677.973572 725.543457 676.259094 727.327026 674 726.5" stroke-linecap="round" />
</g>
		<g transform="matrix(1 0 0 1 -374.52 535.8)"  >
<path style="stroke: rgb(0,0,0); stroke-width: 10; stroke-dasharray: none; stroke-linecap: round; stroke-dashoffset: 0; stroke-linejoin: round; stroke-miterlimit: 4; fill: none; fill-rule: nonzero; opacity: 1;" vector-effect="non-scaling-stroke"  transform=" translate(-223.48, -1182.8)" d="M 382.5 1131.5 C 369.74118 1140.140503 358.178802 1150.422852 345.021149 1158.534302 C 327.554291 1169.302368 308.918152 1176.538574 288.519226 1179.626953 C 273.714905 1181.868408 258.849304 1182.331177 243.999557 1182.390503 C 180.00058 1182.646484 115.999977 1182.525146 52.000034 1182.464233 C 45.007008 1182.45752 44.392231 1183.005493 44.463932 1190.000366 C 44.592049 1202.499023 44.476849 1215.000122 44.510193 1227.5 C 44.525845 1233.368652 45.175953 1233.991333 51.000004 1233.995728 C 67.166656 1234.007935 83.338219 1234.258301 99.499107 1233.952637 C 152.831787 1232.944458 206.169647 1234.016357 259.49826 1233.359009 C 273.268738 1233.189209 286.780518 1230.377075 299.52356 1224.551514 C 307.800262 1220.767578 315.716553 1216.497681 323.04483 1211.060425 C 326.544647 1208.463623 330.012756 1205.947754 330.906799 1201.481323 C 331.313568 1199.448975 332.849426 1199.220093 334.025757 1198.544922 C 356.036163 1185.912231 376.720093 1171.366211 396.514465 1155.518066 C 398.251007 1154.127686 400.131226 1152.862061 402.5 1152.75" stroke-linecap="round" />
</g>
		<g transform="matrix(1 0 0 1 -347 472.75)"  >
<path style="stroke: rgb(0,0,0); stroke-width: 10; stroke-dasharray: none; stroke-linecap: round; stroke-dashoffset: 0; stroke-linejoin: round; stroke-miterlimit: 4; fill: none; fill-rule: nonzero; opacity: 1;" vector-effect="non-scaling-stroke"  transform=" translate(-251, -1119.75)" d="M 483 1010 C 477.178497 1011.658386 473.175781 1016.159729 468.560455 1019.581543 C 435.946716 1043.761475 403.49234 1068.156372 371.006073 1092.508057 C 363.964722 1097.786255 357.005463 1103.173828 349.99881 1108.498413 C 335.597717 1119.442383 319.178741 1125.520874 301.497955 1128.487793 C 289.246826 1130.543579 276.91864 1130.562378 264.502686 1130.716797 C 233.332565 1131.104736 202.159912 1130.460083 171.002853 1131.13208 C 156.830185 1131.437622 142.666031 1131.411621 128.499863 1131.462036 C 95.166946 1131.580444 61.833332 1131.497803 28.5 1131.501343 C 20.447649 1131.502197 19.400894 1132.864502 20.970079 1141.005737 C 21.186884 1142.130615 21 1143.333374 21 1144.5 C 21 1171.333374 21.031656 1198.166748 20.916374 1224.999634 C 20.909893 1226.508423 22.554811 1229.283569 19 1229.5" stroke-linecap="round" />
</g>
		<g transform="matrix(1 0 0 1 -226.01 258.69)"  >
<path style="stroke: rgb(0,0,0); stroke-width: 10; stroke-dasharray: none; stroke-linecap: round; stroke-dashoffset: 0; stroke-linejoin: round; stroke-miterlimit: 4; fill: none; fill-rule: nonzero; opacity: 1;" vector-effect="non-scaling-stroke"  transform=" translate(-372, -905.69)" d="M 723.5 694.5 C 721.743958 692.716675 719.911499 693.398254 717.993408 694.234924 C 713.770386 696.077087 709.513916 698.183228 705.009338 694.986877 C 703.555298 693.955078 701.988708 694.537354 700.499939 694.53479 C 673 694.487305 645.5 694.505249 618 694.490662 C 615.60614 694.48938 613.618103 694.909729 611.432739 696.401489 C 592.382507 709.405396 573.318909 722.402405 553.943176 734.911987 C 542.218689 742.48175 529.230774 745.795105 514.998474 745.643311 C 476.002899 745.227417 436.993195 745.083923 398.003632 745.721619 C 384.013519 745.950378 371.381775 743.624573 360.014465 735.479797 C 353.34906 730.704041 349.313324 723.517273 344.01593 717.486023 C 339.886749 712.784729 336.631836 707.273315 331.48291 703.523499 C 325.377747 699.077209 318.945892 696.048157 311.026428 695.240784 C 301.808929 694.301147 292.662476 694.571716 283.499939 694.560669 C 198.500046 694.458069 113.499992 694.514587 28.500011 694.475342 C 20.795794 694.471802 20.955391 696.003174 20.966366 701.500061 C 21.033571 735.166626 21 768.833313 21 802.5 C 21 828.833313 21.074036 855.167053 20.949476 881.499756 C 20.917145 888.334656 21.807552 895.118286 21.142353 902.013733 C 20.489218 908.784058 21 915.666687 21 922.5 C 21 929.333313 21 936.166687 21 943 C 21 949.833313 21 956.666687 21 963.5 C 21 970.333313 21 977.166687 21 984 C 21 990.666687 21 997.333313 21 1004 C 21 1010.833313 21 1017.666687 21 1024.5 C 21 1031.333374 21 1038.166626 21 1045 C 21 1051.833374 21 1058.666626 21 1065.5 C 21 1072.333374 20.407066 1079.230591 21.135839 1085.985352 C 22.294073 1096.720581 19.692738 1107.324463 20.75 1118" stroke-linecap="round" />
</g>
		<g transform="matrix(1 0 0 1 305.12 217.25)"  >
<path style="stroke: rgb(0,0,0); stroke-width: 10; stroke-dasharray: none; stroke-linecap: round; stroke-dashoffset: 0; stroke-linejoin: round; stroke-miterlimit: 4; fill: none; fill-rule: nonzero; opacity: 1;" vector-effect="non-scaling-stroke"  transform=" translate(-903.12, -864.25)" d="M 1054 736.5 C 1057.496338 742.873657 1054.964233 749.020447 1052.931274 754.976562 C 1048.060059 769.249268 1037.85437 779.825012 1026.895752 789.380432 C 1010.131958 803.997681 991.696289 816.542297 973.950867 829.934875 C 945.801819 851.179077 917.303833 871.960388 889.007812 893.010498 C 856.807434 916.96521 824.676392 941.013123 792.494507 964.992615 C 781.69574 973.039062 770.739502 980.877808 760.060242 989.07843 C 757.07019 991.374512 754.014221 992.100586 750.5 992" stroke-linecap="round" />
</g>
		<g transform="matrix(1 0 0 1 299.15 222)"  >
<path style="stroke: rgb(0,0,0); stroke-width: 10; stroke-dasharray: none; stroke-linecap: round; stroke-dashoffset: 0; stroke-linejoin: round; stroke-miterlimit: 4; fill: none; fill-rule: nonzero; opacity: 1;" vector-effect="non-scaling-stroke"  transform=" translate(-897.15, -869)" d="M 1055.75 729.5 C 1056.191162 733.207092 1055.700073 735.903015 1051.020874 736.633911 C 1047.275879 737.218994 1044.515991 740.327332 1041.540161 742.55365 C 998.648193 774.64209 955.887451 806.905701 912.984436 838.979126 C 872.056702 869.575806 831.002136 900.002869 789.998352 930.497742 C 781.961792 936.474609 776.299072 944.629822 770.625061 952.589111 C 763.764282 962.213135 757.789001 972.472412 751.536621 982.522766 C 750.25354 984.585327 749.014893 986.738403 749.92572 989.524292 C 750.494995 991.265381 749.468445 992.66925 748.072021 994.071716 C 745.327332 996.828125 743.147583 1000.142273 740.44458 1002.946533 C 738.833252 1004.618225 738.188171 1006.310852 738.5 1008.5" stroke-linecap="round" />
</g>
		<g transform="matrix(1 0 0 1 -401.75 557.22)"  >
<path style="stroke: rgb(0,0,0); stroke-width: 10; stroke-dasharray: none; stroke-linecap: round; stroke-dashoffset: 0; stroke-linejoin: round; stroke-miterlimit: 4; fill: none; fill-rule: nonzero; opacity: 1;" vector-effect="non-scaling-stroke"  transform=" translate(-196.25, -1204.22)" d="M 331 1200 C 323.529205 1196.878784 316.830811 1201.040161 310.046875 1202.692505 C 301.58609 1204.753418 293.153992 1206.503052 284.508423 1207.568481 C 269.198181 1209.455322 253.84201 1208.734985 238.500229 1209.012451 C 179.502289 1210.079468 120.499672 1209.216675 61.5 1209.5" stroke-linecap="round" />
</g>
		<g transform="matrix(1 0 0 1 -392.75 606.12)"  >
<path style="stroke: rgb(0,0,0); stroke-width: 10; stroke-dasharray: none; stroke-linecap: round; stroke-dashoffset: 0; stroke-linejoin: round; stroke-miterlimit: 4; fill: none; fill-rule: nonzero; opacity: 1;" vector-effect="non-scaling-stroke"  transform=" translate(-205.25, -1253.12)" d="M 20.5 1266 C 21.923445 1271.824585 22.146776 1272.06543 28.499863 1271.988647 C 106.331711 1271.048462 184.167969 1271.867798 261.99884 1271.330322 C 275.885864 1271.234497 289.805664 1269.197266 303.488647 1266.443604 C 314.986145 1264.129639 326.323517 1261.192627 337.537048 1257.616211 C 353.733185 1252.450562 369.136322 1245.646362 384.000763 1237.501343 C 385.995483 1236.408325 388 1235.333374 390 1234.25" stroke-linecap="round" />
</g>
		<g transform="matrix(1 0 0 1 -18.5 427.5)"  >
<path style="stroke: rgb(0,0,0); stroke-width: 10; stroke-dasharray: none; stroke-linecap: round; stroke-dashoffset: 0; stroke-linejoin: round; stroke-miterlimit: 4; fill: none; fill-rule: nonzero; opacity: 1;" vector-effect="non-scaling-stroke"  transform=" translate(-579.5, -1074.5)" d="M 715.5 971.5 C 712.166687 974.833374 708.861267 978.19519 705.492676 981.492493 C 701.611755 985.291199 698.249023 989.199036 692.051697 990.29303 C 685.918518 991.375549 681.544739 996.862976 676.55481 1000.57373 C 650.770203 1019.748474 625.219299 1039.237183 599.484375 1058.479126 C 576.392029 1075.745117 553.159973 1092.824341 530.001648 1110.002319 C 502.827637 1130.158936 475.646393 1150.306152 448.536377 1170.548706 C 446.242157 1172.261841 443.983978 1174.321899 443.5 1177.5" stroke-linecap="round" />
</g>
		<g transform="matrix(1 0 0 1 229.53 190.92)"  >
<path style="stroke: rgb(0,0,0); stroke-width: 10; stroke-dasharray: none; stroke-linecap: round; stroke-dashoffset: 0; stroke-linejoin: round; stroke-miterlimit: 4; fill: none; fill-rule: nonzero; opacity: 1;" vector-effect="non-scaling-stroke"  transform=" translate(-827.54, -837.92)" d="M 951 769.5 C 944.897949 765.562683 938.056091 767.178772 931.499207 767.140503 C 929.565735 767.129211 927.501099 767.47937 925.5 767.480469 C 878.333313 767.505676 831.166626 767.535034 784.000244 767.413635 C 781.141418 767.40625 778.597595 767.930786 776.537598 769.547913 C 754.243591 787.048279 731.146423 803.473328 708.525513 820.533875 C 701.86377 825.558228 703.661072 826.707092 707.508545 831.493103 C 720.653015 847.844299 733.804016 864.19043 747.012024 880.490295 C 753.944153 889.045288 760.988831 897.509277 768.016235 905.986511 C 768.772095 906.898254 769.716736 907.641663 769.5 909" stroke-linecap="round" />
</g>
		<g transform="matrix(1 0 0 1 -30.71 443.45)"  >
<path style="stroke: rgb(0,0,0); stroke-width: 10; stroke-dasharray: none; stroke-linecap: round; stroke-dashoffset: 0; stroke-linejoin: round; stroke-miterlimit: 4; fill: none; fill-rule: nonzero; opacity: 1;" vector-effect="non-scaling-stroke"  transform=" translate(-567.29, -1090.45)" d="M 698 989.5 C 699.139954 992.506653 698.522766 995.505127 696.941223 997.962158 C 681.958557 1021.239319 669.082825 1045.776611 654.084839 1069.054688 C 641.327454 1088.855103 626.190247 1106.552612 608.958435 1122.454956 C 582.174011 1147.172729 551.87677 1167.435791 523.047852 1189.562256 C 520.397217 1191.59668 517.991638 1191.672974 514.990356 1191.046143 C 502.568481 1188.451294 490.10434 1186.105713 477.507965 1184.439697 C 469.017792 1183.317017 460.613495 1181.5354 452 1181.500122 C 451.666656 1181.498779 451.24585 1181.633301 451.012909 1181.480347 C 446.320984 1178.39978 441.32901 1177.698975 436 1179.5" stroke-linecap="round" />
</g>
		<g transform="matrix(1 0 0 1 -347.63 294.56)"  >
<path style="stroke: rgb(0,0,0); stroke-width: 3; stroke-dasharray: none; stroke-linecap: round; stroke-dashoffset: 0; stroke-linejoin: round; stroke-miterlimit: 4; fill: none; fill-rule: nonzero; opacity: 1;" vector-effect="non-scaling-stroke"  transform=" translate(-250.37, -941.55)" d="M 294.5 945.5 C 303.166656 938.666687 311.8526 931.857483 320.485199 924.981445 C 322.419128 923.44104 324.41156 921.861511 325.934204 919.947632 C 327.607788 917.843933 327.71344 915.040344 325.940704 913.052917 C 319.72998 906.090027 314.430023 898.315796 307.478485 892.023743 C 303.840759 888.731201 299.487518 886.990967 294.5 886.995239 C 279.333344 887.00824 264.166656 886.992859 249.000031 887.016174 C 247.994904 887.017761 246.990128 887.251404 245.75 887.406494 C 245.75 923.498474 245.75 959.499207 245.75 996.109192 C 221.5 995.704529 197.5 996.643311 173.5 995.5" stroke-linecap="round" />
</g>
		<g transform="matrix(1 0 0 1 -275.88 393.52)"  >
<path style="stroke: rgb(0,0,0); stroke-width: 11; stroke-dasharray: none; stroke-linecap: round; stroke-dashoffset: 0; stroke-linejoin: round; stroke-miterlimit: 4; fill: none; fill-rule: nonzero; opacity: 1;" vector-effect="non-scaling-stroke"  transform=" translate(-322.13, -1040.52)" d="M 493.5 993 C 492.166656 991.5 490.541809 990.160828 489.596344 988.446838 C 488.896423 987.17804 488.165497 986.821106 487.002869 987.016968 C 481.996185 987.860657 477.043213 987.523254 471.987854 987.345886 C 466.916077 987.167908 461.708282 987.722168 456.49762 987.61554 C 445.838867 987.397156 435.1651 987.769531 424.500671 988.028076 C 419.481628 988.149719 414.668823 986.740723 409.478973 987.307312 C 396.993622 988.670227 385.881256 993.459473 376.104706 1000.642517 C 356.412506 1015.110779 337.169678 1030.199585 318.477722 1045.973633 C 302.919922 1059.102661 287.362427 1072.247192 271.407623 1084.883301 C 264.628693 1090.252197 256.400269 1092.471436 247.518341 1093.21814 C 239.154968 1093.921265 230.837738 1093.788208 222.499619 1093.983398 C 219.963959 1094.042725 217.306351 1094.420776 215.035477 1092.945435 C 214.306351 1092.47168 213.662064 1092.437988 213.003067 1092.52356 C 194.203705 1094.962158 175.328262 1092.814087 156.498016 1093.440552 C 152.418411 1093.576416 151.0121 1091.52063 151.008698 1086.5 C 150.990356 1059.333374 151.011337 1032.166626 150.9888 1005 C 150.985062 1000.499939 150.833328 996 150.75 991.5" stroke-linecap="round" />
</g>
		<g transform="matrix(1 0 0 1 505.27 -418.11)"  >
<path style="stroke: rgb(0,0,0); stroke-width: 11; stroke-dasharray: none; stroke-linecap: round; stroke-dashoffset: 0; stroke-linejoin: round; stroke-miterlimit: 4; fill: none; fill-rule: nonzero; opacity: 1;" vector-effect="non-scaling-stroke"  transform=" translate(-1103.27, -228.88)" d="M 1059.5 267 C 1061.112549 265.452179 1063.134766 266.011414 1064.999878 266.021515 C 1089.833374 266.156006 1114.666748 266.324615 1139.499878 266.514282 C 1141.818604 266.531982 1144.095947 266.480804 1146.315308 265.361328 C 1147.276001 263.249817 1146.993896 260.856018 1146.994995 258.5 C 1147.003784 238.333328 1147.007568 218.166672 1146.995483 198 C 1146.991699 191.766312 1146.233643 191.010269 1140 191.004486 C 1125 190.990601 1109.962524 190.354752 1095.013062 191.223862 C 1084.825195 191.816162 1074.669434 191.754532 1064.499512 191.980469 C 1062.789429 192.018478 1060.941284 192.460388 1059.5 191" stroke-linecap="round" />
</g>
		<g transform="matrix(1 0 0 1 267.5 190.13)"  >
<path style="stroke: rgb(0,0,0); stroke-width: 10; stroke-dasharray: none; stroke-linecap: round; stroke-dashoffset: 0; stroke-linejoin: round; stroke-miterlimit: 4; fill: none; fill-rule: nonzero; opacity: 1;" vector-effect="non-scaling-stroke"  transform=" translate(-865.5, -837.13)" d="M 961.5 766.75 C 959.166687 767.333313 956.858154 768.082642 954.49054 768.436951 C 953.102173 768.644653 951.513123 769.107056 951.092651 770.041687 C 946.732849 779.73468 936.998718 783.499512 929.38031 789.343994 C 902.353821 810.077332 874.822083 830.15155 847.503418 850.504578 C 823.820251 868.149109 800.162842 885.828247 776.506287 903.508362 C 774.329468 905.135132 772.196594 906.802368 769.5 907.5" stroke-linecap="round" />
</g>
		<g transform="matrix(1 0 0 1 -21.07 319.63)"  >
<path style="stroke: rgb(0,0,0); stroke-width: 10; stroke-dasharray: none; stroke-linecap: round; stroke-dashoffset: 0; stroke-linejoin: round; stroke-miterlimit: 4; fill: none; fill-rule: nonzero; opacity: 1;" vector-effect="non-scaling-stroke"  transform=" translate(-576.93, -966.63)" d="M 670.5 864.75 C 665.256287 864.78894 662.22876 869.012024 658.602661 871.641541 C 639.71582 885.337891 621.173767 899.50946 602.498291 913.497681 C 573.33783 935.339355 544.174866 957.177551 514.995483 978.993958 C 505.357941 986.199585 495.653625 993.315918 486.007477 1000.51001 C 482.912354 1002.818481 482.461487 1008.08313 484.999115 1011.000732 C 498.33432 1026.33252 511.862427 1041.503784 524.853455 1057.121948 C 527.859436 1060.735596 532.330383 1063.43689 533.5 1068.5" stroke-linecap="round" />
</g>
		<g transform="matrix(1 0 0 1 -148.75 214.25)"  >
<path style="stroke: rgb(0,0,0); stroke-width: 10; stroke-dasharray: none; stroke-linecap: round; stroke-dashoffset: 0; stroke-linejoin: round; stroke-miterlimit: 4; fill: none; fill-rule: nonzero; opacity: 1;" vector-effect="non-scaling-stroke"  transform=" translate(-449.25, -861.25)" d="M 653.5 826 C 649.901245 825.627075 647.403381 827.320618 644.366943 829.29541 C 633.516846 836.35199 623.470215 844.469971 613.076111 852.103577 C 599.646545 861.966553 586.466675 872.176392 573.118225 882.158081 C 564.25 888.789612 554.342468 892.000793 543.983704 894.43042 C 535.804016 896.348999 527.419861 896.578857 518.999817 896.554688 C 477.16684 896.434631 435.333191 896.561096 393.500153 896.446472 C 385.506073 896.424561 377.496552 895.110779 370.056763 892.347168 C 361.115753 889.026001 354.601776 882.4375 349.984131 874.008667 C 341.777313 859.028442 328.625427 852.584351 311.999908 852.521057 C 289.666901 852.435974 267.333344 852.5 245 852.5" stroke-linecap="round" />
</g>
		<g transform="matrix(1 0 0 1 35.25 348.45)"  >
<path style="stroke: rgb(0,0,0); stroke-width: 10; stroke-dasharray: none; stroke-linecap: round; stroke-dashoffset: 0; stroke-linejoin: round; stroke-miterlimit: 4; fill: none; fill-rule: nonzero; opacity: 1;" vector-effect="non-scaling-stroke"  transform=" translate(-633.25, -995.46)" d="M 703.5 945.5 C 701.43811 945.161926 699.618835 945.83374 698.007812 947.010681 C 673.163269 965.161987 648.348938 983.354736 623.495056 1001.493225 C 603.352661 1016.193176 583.166748 1030.833374 563.000061 1045.500122" stroke-linecap="round" />
</g>
		<g transform="matrix(1 0 0 1 -525.25 397.45)"  >
<path style="stroke: rgb(0,0,0); stroke-width: 10; stroke-dasharray: none; stroke-linecap: round; stroke-dashoffset: 0; stroke-linejoin: round; stroke-miterlimit: 4; fill: none; fill-rule: nonzero; opacity: 1;" vector-effect="non-scaling-stroke"  transform=" translate(-72.75, -1044.45)" d="M 122.5 994 C 122.5 1024.5 122.501869 1055 122.498634 1085.5 C 122.497856 1092.845825 121.830833 1093.20166 114.504333 1093.58313 C 107.502113 1093.947754 100.462646 1092.289429 93.409546 1094.739624 C 91.232018 1095.496094 88.000793 1093.425537 84.999687 1093.44165 C 64.333618 1093.552856 43.666668 1093.5 23 1093.5" stroke-linecap="round" />
</g>
		<g transform="matrix(1 0 0 1 -333.86 155.25)"  >
<path style="stroke: rgb(0,0,0); stroke-width: 10; stroke-dasharray: none; stroke-linecap: round; stroke-dashoffset: 0; stroke-linejoin: round; stroke-miterlimit: 4; fill: none; fill-rule: nonzero; opacity: 1;" vector-effect="non-scaling-stroke"  transform=" translate(-264.14, -802.25)" d="M 316 793.5 C 284.5 793.5 253 793.498169 221.5 793.501404 C 214.157028 793.502136 213.266998 794.158997 213.61412 801.494629 C 213.771271 804.815552 211.600143 807.703552 212.5 811" stroke-linecap="round" />
</g>
		<g transform="matrix(1 0 0 1 -119.5 464.01)"  >
<path style="stroke: rgb(0,0,0); stroke-width: 10; stroke-dasharray: none; stroke-linecap: round; stroke-dashoffset: 0; stroke-linejoin: round; stroke-miterlimit: 4; fill: none; fill-rule: nonzero; opacity: 1;" vector-effect="non-scaling-stroke"  transform=" translate(-478.5, -1111.01)" d="M 538.5 1068.5 C 534.546753 1067.688599 532.201416 1070.411743 529.485352 1072.480713 C 513.681885 1084.519897 497.837158 1096.505005 481.998962 1108.498657 C 463.503326 1122.504395 445.014374 1136.519165 426.482056 1150.476196 C 424.161865 1152.223633 421.826935 1154.260742 418.5 1153.5" stroke-linecap="round" />
</g>
		<g transform="matrix(1 0 0 1 -479.74 226.64)"  >
<path style="stroke: rgb(0,0,0); stroke-width: 10; stroke-dasharray: none; stroke-linecap: round; stroke-dashoffset: 0; stroke-linejoin: round; stroke-miterlimit: 4; fill: none; fill-rule: nonzero; opacity: 1;" vector-effect="non-scaling-stroke"  transform=" translate(-118.26, -873.64)" d="M 202.5 852.5 C 205.753448 852.79541 209.006897 853.090759 212.184631 853.379333 C 213.429535 855.697083 213.534653 858.064758 213.52063 860.500122 C 213.468765 869.499817 213.527512 878.500122 213.49028 887.499939 C 213.465744 893.432129 212.432037 894.478027 206.499985 894.489502 C 190.666718 894.520203 174.806137 895.059326 159.010147 894.29126 C 149.455032 893.826599 140.013016 894.987 130.496338 894.587341 C 121.013062 894.188965 111.47628 894.082886 102.006897 894.621338 C 93.141327 895.125427 84.338943 894.188171 75.498405 894.445129 C 66.839058 894.696899 58.166668 894.5 49.5 894.5 C 40.666668 894.5 31.833334 894.5 23 894.5" stroke-linecap="round" />
</g>
		<g transform="matrix(1 0 0 1 195.75 42.13)"  >
<path style="stroke: rgb(0,0,0); stroke-width: 12; stroke-dasharray: none; stroke-linecap: round; stroke-dashoffset: 0; stroke-linejoin: round; stroke-miterlimit: 4; fill: none; fill-rule: nonzero; opacity: 1;" vector-effect="non-scaling-stroke"  transform=" translate(-793.75, -689.13)" d="M 847.5 688.75 C 842 689 836.500488 689.453003 830.999939 689.466125 C 801.166748 689.537415 771.333313 689.501221 741.5 689.489624 C 741 689.48938 740.5 689.333313 740 689.25" stroke-linecap="round" />
</g>
		<g transform="matrix(1 0 0 1 -481 163.11)"  >
<path style="stroke: rgb(0,0,0); stroke-width: 10; stroke-dasharray: none; stroke-linecap: round; stroke-dashoffset: 0; stroke-linejoin: round; stroke-miterlimit: 4; fill: none; fill-rule: nonzero; opacity: 1;" vector-effect="non-scaling-stroke"  transform=" translate(-117, -810.11)" d="M 211.5 809 C 209.333328 809.166687 207.16687 809.475281 204.999969 809.478271 C 180.333344 809.512451 155.666672 809.497314 131 809.504211 C 128.623672 809.504883 126.208275 809.233337 123.992722 810.487122 C 123.39576 810.824951 123.059944 811.570923 121.977104 811.047363 C 116.04245 808.178589 109.669739 809.607666 103.499557 809.567566 C 78.500618 809.404907 53.499985 809.511414 28.500029 809.478394 C 26.499815 809.475769 24.500004 809.166626 22.500004 808.999939" stroke-linecap="round" />
</g>
		<g transform="matrix(1 0 0 1 -503.5 297)"  >
<path style="stroke: rgb(0,0,0); stroke-width: 10; stroke-dasharray: none; stroke-linecap: round; stroke-dashoffset: 0; stroke-linejoin: round; stroke-miterlimit: 4; fill: none; fill-rule: nonzero; opacity: 1;" vector-effect="non-scaling-stroke"  transform=" translate(-94.5, -944)" d="M 94.5 896.5 C 94.5 928.166687 94.5 959.833313 94.5 991.5" stroke-linecap="round" />
</g>
		<g transform="matrix(1 0 0 1 -385.25 397.75)"  >
<path style="stroke: rgb(0,0,0); stroke-width: 11; stroke-dasharray: none; stroke-linecap: round; stroke-dashoffset: 0; stroke-linejoin: round; stroke-miterlimit: 4; fill: none; fill-rule: nonzero; opacity: 1;" vector-effect="non-scaling-stroke"  transform=" translate(-212.75, -1044.75)" d="M 212 997.5 C 213.338913 999.332397 212.993149 1001.452148 212.993988 1003.5 C 213.003494 1026.666626 212.965027 1049.833496 213.022903 1073 C 213.038742 1079.33374 213.333328 1085.666626 213.5 1092" stroke-linecap="round" />
</g>
		<g transform="matrix(1 0 0 1 487.99 -327.78)"  >
<path style="stroke: rgb(0,0,0); stroke-width: 14; stroke-dasharray: none; stroke-linecap: round; stroke-dashoffset: 0; stroke-linejoin: round; stroke-miterlimit: 4; fill: none; fill-rule: nonzero; opacity: 1;" vector-effect="non-scaling-stroke"  transform=" translate(-1085.99, -319.22)" d="M 1058.5 336.5 C 1063.666626 336.5 1069.19458 337.683716 1073.921143 336.241425 C 1082.466064 333.633911 1090.664917 336.473602 1099.003418 336.070892 C 1109.231812 335.576935 1113.476074 331.599335 1113.481934 321.5 C 1113.483765 318.497192 1113.368896 315.504517 1113.103882 312.490875 C 1112.591309 306.663055 1108.334106 302.44104 1102.506104 301.930237 C 1094.730347 301.248596 1087.132324 300.655304 1080.451294 305.938354 C 1079.655396 306.567627 1079.031616 306.802643 1078.95813 307.997437 C 1078.429688 316.602081 1077.700073 325.206543 1081 333.5" stroke-linecap="round" />
</g>
		<g transform="matrix(1 0 0 1 -542 462.31)"  >
<path style="stroke: rgb(0,0,0); stroke-width: 10; stroke-dasharray: none; stroke-linecap: round; stroke-dashoffset: 0; stroke-linejoin: round; stroke-miterlimit: 4; fill: none; fill-rule: nonzero; opacity: 1;" vector-effect="non-scaling-stroke"  transform=" translate(-56, -1109.31)" d="M 90.5 1110.5 C 76.166664 1110.5 61.828598 1110.277344 47.501743 1110.582031 C 38.684811 1110.769653 30.033623 1110.217041 21.5 1108" stroke-linecap="round" />
</g>
		<g transform="matrix(1 0 0 1 -454.51 186)"  >
<path style="stroke: rgb(0,0,0); stroke-width: 10; stroke-dasharray: none; stroke-linecap: round; stroke-dashoffset: 0; stroke-linejoin: round; stroke-miterlimit: 4; fill: none; fill-rule: nonzero; opacity: 1;" vector-effect="non-scaling-stroke"  transform=" translate(-143.5, -833)" d="M 122.5 812 C 122.5 823.5 122.478447 835.000061 122.509438 846.5 C 122.524101 851.93988 123.07238 852.22644 128.497055 852.5495 C 135.999191 852.996277 143.664703 851.029358 151 854 C 155.285919 851.573181 159.977356 852.796265 164.5 852.5" stroke-linecap="round" />
</g>
		<g transform="matrix(1 0 0 1 -414.08 204.53)"  >
<path style="stroke: rgb(0,0,0); stroke-width: 14; stroke-dasharray: none; stroke-linecap: round; stroke-dashoffset: 0; stroke-linejoin: round; stroke-miterlimit: 4; fill: none; fill-rule: nonzero; opacity: 1;" vector-effect="non-scaling-stroke"  transform=" translate(-183.93, -851.53)" d="M 202 852.5 C 199.89447 849.484741 200.557465 845.789368 199.659729 842.45697 C 198.565216 838.394165 196.616974 836.422058 192.529434 835.384094 C 186.250824 833.789795 180.224304 833.763062 173.977356 835.414307 C 170.498856 836.33374 168.475754 838.260925 167.513718 841.504089 C 165.58963 847.990356 165.074524 854.405334 167.389816 861.038452 C 168.615845 864.550964 170.355682 866.582947 173.980545 867.57135 C 179.837784 869.168274 185.587158 869.289001 191.510437 868.049866 C 196.356827 867.036072 199.184341 864.389587 200.021179 859.503601 C 200.39595 857.315491 200.999985 855.166687 201.499985 853" stroke-linecap="round" />
</g>
		<g transform="matrix(1 0 0 1 -9.75 320.5)"  >
<path style="stroke: rgb(0,0,0); stroke-width: 3; stroke-dasharray: none; stroke-linecap: round; stroke-dashoffset: 0; stroke-linejoin: round; stroke-miterlimit: 4; fill: none; fill-rule: nonzero; opacity: 1;" vector-effect="non-scaling-stroke"  transform=" translate(-588.25, -967.5)" d="M 569 943 C 581.833313 959.333313 594.666626 975.666687 607.5 992" stroke-linecap="round" />
</g>
		<g transform="matrix(1 0 0 1 -192.67 311.5)"  >
<path style="stroke: rgb(0,0,0); stroke-width: 3; stroke-dasharray: none; stroke-linecap: round; stroke-dashoffset: 0; stroke-linejoin: round; stroke-miterlimit: 4; fill: none; fill-rule: nonzero; opacity: 1;" vector-effect="non-scaling-stroke"  transform=" translate(-405.33, -958.5)" d="M 512 897 C 512 906 511.663727 915.017578 512.133545 923.992981 C 512.391052 928.912964 510.84433 932.274536 507.010376 935.014526 C 497.978149 941.469421 488.99234 947.98938 480.004303 954.505859 C 476.911163 956.748474 473.168304 955.840881 470.003632 955.787109 C 451.32962 955.469727 432.672394 955.485657 413.997131 955.854919 C 406.681305 955.999695 399.329437 955.141907 392.001007 956.008423 C 383.063049 957.065247 375.000366 960.416931 368.039734 966.049133 C 362.254028 970.73053 356.589203 975.856445 350.710297 980.098511 C 340.351837 987.572754 330.767853 995.966431 320.511139 1003.515137 C 313.128815 1008.948364 306.512726 1015.405884 298.5 1020" stroke-linecap="round" />
</g>
		<g transform="matrix(1 0 0 1 -186.75 305.41)"  >
<path style="stroke: rgb(0,0,0); stroke-width: 4; stroke-dasharray: none; stroke-linecap: round; stroke-dashoffset: 0; stroke-linejoin: round; stroke-miterlimit: 4; fill: none; fill-rule: nonzero; opacity: 1;" vector-effect="non-scaling-stroke"  transform=" translate(-411.25, -952.41)" d="M 508.5 932 C 505.216003 930.846375 501.838165 931.511536 498.5 931.509399 C 471.833344 931.492554 445.166351 931.422119 418.500122 931.531799 C 404.500244 931.589417 390.498413 930.982178 376.496338 931.946716 C 367.373962 932.575073 359.194366 935.591736 352.0495 941.064636 C 345.483398 946.094116 339.569031 951.98468 332.929749 956.905151 C 327.001068 961.298828 321.837006 966.541504 315.986786 970.982605 C 315.079041 971.671814 314.111847 972.222778 314 973.5" stroke-linecap="round" />
</g>
		<g transform="matrix(1 0 0 1 -447 226.5)"  >
<path style="stroke: rgb(0,0,0); stroke-width: 11; stroke-dasharray: none; stroke-linecap: round; stroke-dashoffset: 0; stroke-linejoin: round; stroke-miterlimit: 4; fill: none; fill-rule: nonzero; opacity: 1;" vector-effect="non-scaling-stroke"  transform=" translate(-151, -873.5)" d="M 151 854.5 C 151 867.166687 151 879.833313 151 892.5" stroke-linecap="round" />
</g>
		<g transform="matrix(1 0 0 1 -216.8 266.5)"  >
<path style="stroke: rgb(0,0,0); stroke-width: 3; stroke-dasharray: none; stroke-linecap: round; stroke-dashoffset: 0; stroke-linejoin: round; stroke-miterlimit: 4; fill: none; fill-rule: nonzero; opacity: 1;" vector-effect="non-scaling-stroke"  transform=" translate(-381.21, -913.5)" d="M 381.5 896 C 380.406281 902.81073 381.211639 909.667603 381.025482 916.500671 C 380.89389 921.330444 381 926.166687 381 931" stroke-linecap="round" />
</g>
		<g transform="matrix(1 0 0 1 -103 267)"  >
<path style="stroke: rgb(0,0,0); stroke-width: 3; stroke-dasharray: none; stroke-linecap: round; stroke-dashoffset: 0; stroke-linejoin: round; stroke-miterlimit: 4; fill: none; fill-rule: nonzero; opacity: 1;" vector-effect="non-scaling-stroke"  transform=" translate(-495, -914)" d="M 495 897 C 495 908.333313 495 919.666687 495 931" stroke-linecap="round" />
</g>
		<g transform="matrix(1 0 0 1 202.5 214.34)"  >
<path style="stroke: rgb(0,0,0); stroke-width: 3; stroke-dasharray: none; stroke-linecap: round; stroke-dashoffset: 0; stroke-linejoin: round; stroke-miterlimit: 4; fill: none; fill-rule: nonzero; opacity: 1;" vector-effect="non-scaling-stroke"  transform=" translate(-800.5, -861.34)" d="M 845 847 C 836 844.333374 827.003235 841.655823 817.998596 839.0047 C 813.70575 837.740784 810.551819 840.405884 807.556274 842.577637 C 802.189697 846.468506 797.168274 850.835327 791.999695 854.999634 C 780.000671 864.66748 768 874.333374 756 884.000061" stroke-linecap="round" />
</g>
		<g transform="matrix(1 0 0 1 -119 267)"  >
<path style="stroke: rgb(0,0,0); stroke-width: 3; stroke-dasharray: none; stroke-linecap: round; stroke-dashoffset: 0; stroke-linejoin: round; stroke-miterlimit: 4; fill: none; fill-rule: nonzero; opacity: 1;" vector-effect="non-scaling-stroke"  transform=" translate(-479, -914)" d="M 479 897 C 479 908.333313 479 919.666687 479 931" stroke-linecap="round" />
</g>
		<g transform="matrix(1 0 0 1 -200 267)"  >
<path style="stroke: rgb(0,0,0); stroke-width: 3; stroke-dasharray: none; stroke-linecap: round; stroke-dashoffset: 0; stroke-linejoin: round; stroke-miterlimit: 4; fill: none; fill-rule: nonzero; opacity: 1;" vector-effect="non-scaling-stroke"  transform=" translate(-398, -914)" d="M 398 897 C 398 908.333313 398 919.666687 398 931" stroke-linecap="round" />
</g>
		<g transform="matrix(1 0 0 1 -160 267)"  >
<path style="stroke: rgb(0,0,0); stroke-width: 3; stroke-dasharray: none; stroke-linecap: round; stroke-dashoffset: 0; stroke-linejoin: round; stroke-miterlimit: 4; fill: none; fill-rule: nonzero; opacity: 1;" vector-effect="non-scaling-stroke"  transform=" translate(-438, -914)" d="M 438 897 C 438 908.333313 438 919.666687 438 931" stroke-linecap="round" />
</g>
		<g transform="matrix(1 0 0 1 -143 267)"  >
<path style="stroke: rgb(0,0,0); stroke-width: 3; stroke-dasharray: none; stroke-linecap: round; stroke-dashoffset: 0; stroke-linejoin: round; stroke-miterlimit: 4; fill: none; fill-rule: nonzero; opacity: 1;" vector-effect="non-scaling-stroke"  transform=" translate(-455, -914)" d="M 455 897 C 455 908.333313 455 919.666687 455 931" stroke-linecap="round" />
</g>
		<g transform="matrix(1 0 0 1 -127.26 266.75)"  >
<path style="stroke: rgb(0,0,0); stroke-width: 4; stroke-dasharray: none; stroke-linecap: round; stroke-dashoffset: 0; stroke-linejoin: round; stroke-miterlimit: 4; fill: none; fill-rule: nonzero; opacity: 1;" vector-effect="non-scaling-stroke"  transform=" translate(-470.74, -913.75)" d="M 471 897 C 470.202454 908.157227 470.579895 919.332031 470.5 930.5" stroke-linecap="round" />
</g>
		<g transform="matrix(1 0 0 1 -151.5 266.75)"  >
<path style="stroke: rgb(0,0,0); stroke-width: 4; stroke-dasharray: none; stroke-linecap: round; stroke-dashoffset: 0; stroke-linejoin: round; stroke-miterlimit: 4; fill: none; fill-rule: nonzero; opacity: 1;" vector-effect="non-scaling-stroke"  transform=" translate(-446.5, -913.75)" d="M 446.5 897 C 446.5 908.166687 446.5 919.333313 446.5 930.5" stroke-linecap="round" />
</g>
		<g transform="matrix(1 0 0 1 -208.74 266.75)"  >
<path style="stroke: rgb(0,0,0); stroke-width: 4; stroke-dasharray: none; stroke-linecap: round; stroke-dashoffset: 0; stroke-linejoin: round; stroke-miterlimit: 4; fill: none; fill-rule: nonzero; opacity: 1;" vector-effect="non-scaling-stroke"  transform=" translate(-389.26, -913.75)" d="M 389.5 897 C 388.100403 900.666687 389.730133 904.3172 389.586945 908.003357 C 389.296021 915.492065 389.5 923 389.5 930.5" stroke-linecap="round" />
</g>
		<g transform="matrix(1 0 0 1 -94.5 266.75)"  >
<path style="stroke: rgb(0,0,0); stroke-width: 4; stroke-dasharray: none; stroke-linecap: round; stroke-dashoffset: 0; stroke-linejoin: round; stroke-miterlimit: 4; fill: none; fill-rule: nonzero; opacity: 1;" vector-effect="non-scaling-stroke"  transform=" translate(-503.5, -913.75)" d="M 503.5 897 C 503.5 908.166687 503.5 919.333313 503.5 930.5" stroke-linecap="round" />
</g>
		<g transform="matrix(1 0 0 1 473.25 -438.46)"  >
<path style="stroke: rgb(0,0,0); stroke-width: 3; stroke-dasharray: none; stroke-linecap: round; stroke-dashoffset: 0; stroke-linejoin: round; stroke-miterlimit: 4; fill: none; fill-rule: nonzero; opacity: 1;" vector-effect="non-scaling-stroke"  transform=" translate(-1071.25, -208.54)" d="M 1055 208 C 1059.230591 209.668335 1063.656128 208.897888 1068.000488 208.97142 C 1074.498657 209.081406 1081 209 1087.5 209" stroke-linecap="round" />
</g>
		<g transform="matrix(1 0 0 1 59.5 201.75)"  >
<path style="stroke: rgb(0,0,0); stroke-width: 3; stroke-dasharray: none; stroke-linecap: round; stroke-dashoffset: 0; stroke-linejoin: round; stroke-miterlimit: 4; fill: none; fill-rule: nonzero; opacity: 1;" vector-effect="non-scaling-stroke"  transform=" translate(-657.5, -848.75)" d="M 647 832.5 C 653.5 841.166626 659.924988 849.891357 666.553589 858.458557 C 668.179871 860.560425 667.917297 862.737061 668 865" stroke-linecap="round" />
</g>
		<g transform="matrix(1 0 0 1 -119.21 324.75)"  >
<path style="stroke: rgb(0,0,0); stroke-width: 3; stroke-dasharray: none; stroke-linecap: round; stroke-dashoffset: 0; stroke-linejoin: round; stroke-miterlimit: 4; fill: none; fill-rule: nonzero; opacity: 1;" vector-effect="non-scaling-stroke"  transform=" translate(-478.79, -971.75)" d="M 478.5 956 C 479.642822 963.979675 478.708557 972.002258 478.986511 980.000488 C 479.073303 982.497437 479 985 479 987.5" stroke-linecap="round" />
</g>
		<g transform="matrix(1 0 0 1 98.25 63.75)"  >
<path style="stroke: rgb(0,0,0); stroke-width: 10; stroke-dasharray: none; stroke-linecap: round; stroke-dashoffset: 0; stroke-linejoin: round; stroke-miterlimit: 4; fill: none; fill-rule: nonzero; opacity: 1;" vector-effect="non-scaling-stroke"  transform=" translate(-696.25, -710.75)" d="M 709.5 697.5 C 708.080322 703.152466 702.837524 705.177063 698.971985 708.467102 C 695.268311 711.619385 691.452209 714.671814 687.455994 717.43634 C 685.010498 719.127991 683.81427 721.358582 683 724" stroke-linecap="round" />
</g>
		<g transform="matrix(1 0 0 1 -193 325)"  >
<path style="stroke: rgb(0,0,0); stroke-width: 3; stroke-dasharray: none; stroke-linecap: round; stroke-dashoffset: 0; stroke-linejoin: round; stroke-miterlimit: 4; fill: none; fill-rule: nonzero; opacity: 1;" vector-effect="non-scaling-stroke"  transform=" translate(-405, -972)" d="M 405 956.5 C 405 966.833313 405 977.166687 405 987.5" stroke-linecap="round" />
</g>
		<g transform="matrix(1 0 0 1 474 -446.5)"  >
<path style="stroke: rgb(0,0,0); stroke-width: 4; stroke-dasharray: none; stroke-linecap: round; stroke-dashoffset: 0; stroke-linejoin: round; stroke-miterlimit: 4; fill: none; fill-rule: nonzero; opacity: 1;" vector-effect="non-scaling-stroke"  transform=" translate(-1072, -200.5)" d="M 1087.5 200.5 C 1077.166626 200.5 1066.833374 200.5 1056.5 200.5" stroke-linecap="round" />
</g>
		<g transform="matrix(1 0 0 1 -136 325)"  >
<path style="stroke: rgb(0,0,0); stroke-width: 3; stroke-dasharray: none; stroke-linecap: round; stroke-dashoffset: 0; stroke-linejoin: round; stroke-miterlimit: 4; fill: none; fill-rule: nonzero; opacity: 1;" vector-effect="non-scaling-stroke"  transform=" translate(-462, -972)" d="M 462 956.5 C 462 966.833313 462 977.166687 462 987.5" stroke-linecap="round" />
</g>
		<g transform="matrix(1 0 0 1 -160 325)"  >
<path style="stroke: rgb(0,0,0); stroke-width: 3; stroke-dasharray: none; stroke-linecap: round; stroke-dashoffset: 0; stroke-linejoin: round; stroke-miterlimit: 4; fill: none; fill-rule: nonzero; opacity: 1;" vector-effect="non-scaling-stroke"  transform=" translate(-438, -972)" d="M 438 956.5 C 438 966.833313 438 977.166687 438 987.5" stroke-linecap="round" />
</g>
		<g transform="matrix(1 0 0 1 -176 325)"  >
<path style="stroke: rgb(0,0,0); stroke-width: 3; stroke-dasharray: none; stroke-linecap: round; stroke-dashoffset: 0; stroke-linejoin: round; stroke-miterlimit: 4; fill: none; fill-rule: nonzero; opacity: 1;" vector-effect="non-scaling-stroke"  transform=" translate(-422, -972)" d="M 422 956.5 C 422 966.833313 422 977.166687 422 987.5" stroke-linecap="round" />
</g>
		<g transform="matrix(1 0 0 1 473.75 -389.5)"  >
<path style="stroke: rgb(0,0,0); stroke-width: 4; stroke-dasharray: none; stroke-linecap: round; stroke-dashoffset: 0; stroke-linejoin: round; stroke-miterlimit: 4; fill: none; fill-rule: nonzero; opacity: 1;" vector-effect="non-scaling-stroke"  transform=" translate(-1071.75, -257.5)" d="M 1087 257.5 C 1076.833374 257.5 1066.666626 257.5 1056.5 257.5" stroke-linecap="round" />
</g>
		<g transform="matrix(1 0 0 1 -150.75 324.75)"  >
<path style="stroke: rgb(0,0,0); stroke-width: 4; stroke-dasharray: none; stroke-linecap: round; stroke-dashoffset: 0; stroke-linejoin: round; stroke-miterlimit: 4; fill: none; fill-rule: nonzero; opacity: 1;" vector-effect="non-scaling-stroke"  transform=" translate(-447.25, -971.75)" d="M 446.5 956.5 C 446.5 964.166687 446.505035 971.833313 446.497192 979.5 C 446.494537 982.104065 446.683594 984.663269 448 987" stroke-linecap="round" />
</g>
		<g transform="matrix(1 0 0 1 -270 235)"  >
<path style="stroke: rgb(0,0,0); stroke-width: 3; stroke-dasharray: none; stroke-linecap: round; stroke-dashoffset: 0; stroke-linejoin: round; stroke-miterlimit: 4; fill: none; fill-rule: nonzero; opacity: 1;" vector-effect="non-scaling-stroke"  transform=" translate(-328, -882)" d="M 343 869 C 334.175201 874.867737 327.174805 882.870056 319.014954 889.518372 C 316.915131 891.229248 315 893.166687 313 895" stroke-linecap="round" />
</g>
		<g transform="matrix(1 0 0 1 473.5 -421.82)"  >
<path style="stroke: rgb(0,0,0); stroke-width: 4; stroke-dasharray: none; stroke-linecap: round; stroke-dashoffset: 0; stroke-linejoin: round; stroke-miterlimit: 4; fill: none; fill-rule: nonzero; opacity: 1;" vector-effect="non-scaling-stroke"  transform=" translate(-1071.5, -225.19)" d="M 1086.5 226 C 1076.619629 223.108322 1066.496582 225.068924 1056.5 224.5" stroke-linecap="round" />
</g>
		<g transform="matrix(1 0 0 1 -184.5 324.5)"  >
<path style="stroke: rgb(0,0,0); stroke-width: 4; stroke-dasharray: none; stroke-linecap: round; stroke-dashoffset: 0; stroke-linejoin: round; stroke-miterlimit: 4; fill: none; fill-rule: nonzero; opacity: 1;" vector-effect="non-scaling-stroke"  transform=" translate(-413.5, -971.5)" d="M 413.5 956.5 C 413.5 966.5 413.5 976.5 413.5 986.5" stroke-linecap="round" />
</g>
		<g transform="matrix(1 0 0 1 474.75 -397.5)"  >
<path style="stroke: rgb(0,0,0); stroke-width: 3; stroke-dasharray: none; stroke-linecap: round; stroke-dashoffset: 0; stroke-linejoin: round; stroke-miterlimit: 4; fill: none; fill-rule: nonzero; opacity: 1;" vector-effect="non-scaling-stroke"  transform=" translate(-1072.75, -249.49)" d="M 1087.5 249 C 1079.5 249 1071.5 249.014359 1063.5 248.989502 C 1061.591919 248.983582 1059.69812 248.92305 1058 250" stroke-linecap="round" />
</g>
		<g transform="matrix(1 0 0 1 -265.75 242)"  >
<path style="stroke: rgb(0,0,0); stroke-width: 3; stroke-dasharray: none; stroke-linecap: round; stroke-dashoffset: 0; stroke-linejoin: round; stroke-miterlimit: 4; fill: none; fill-rule: nonzero; opacity: 1;" vector-effect="non-scaling-stroke"  transform=" translate(-332.25, -889)" d="M 347.000031 876.000061 C 337.166687 884.666687 327.333374 893.333374 317.500031 902.000061" stroke-linecap="round" />
</g>
		<g transform="matrix(1 0 0 1 0 243.5)"  >
<path style="stroke: rgb(0,0,0); stroke-width: 3; stroke-dasharray: none; stroke-linecap: round; stroke-dashoffset: 0; stroke-linejoin: round; stroke-miterlimit: 4; fill: none; fill-rule: nonzero; opacity: 1;" vector-effect="non-scaling-stroke"  transform=" translate(-598, -890.5)" d="M 587 876 C 594.333313 885.666687 601.666687 895.333313 609 905" stroke-linecap="round" />
</g>
		<g transform="matrix(1 0 0 1 -126.78 324)"  >
<path style="stroke: rgb(0,0,0); stroke-width: 4; stroke-dasharray: none; stroke-linecap: round; stroke-dashoffset: 0; stroke-linejoin: round; stroke-miterlimit: 4; fill: none; fill-rule: nonzero; opacity: 1;" vector-effect="non-scaling-stroke"  transform=" translate(-471.22, -971)" d="M 470.5 956.5 C 470.5 962.166687 470.603455 967.835815 470.465332 973.499146 C 470.365295 977.600647 470.560516 981.617432 472 985.5" stroke-linecap="round" />
</g>
		<g transform="matrix(1 0 0 1 51 201.75)"  >
<path style="stroke: rgb(0,0,0); stroke-width: 3; stroke-dasharray: none; stroke-linecap: round; stroke-dashoffset: 0; stroke-linejoin: round; stroke-miterlimit: 4; fill: none; fill-rule: nonzero; opacity: 1;" vector-effect="non-scaling-stroke"  transform=" translate(-649, -848.75)" d="M 639 834.5 C 639.391235 835.874146 639.3526 837.314331 640.471741 838.526062 C 647.444336 846.074768 652.829956 854.835876 659 863" stroke-linecap="round" />
</g>
		<g transform="matrix(1 0 0 1 -176 269.75)"  >
<path style="stroke: rgb(0,0,0); stroke-width: 3; stroke-dasharray: none; stroke-linecap: round; stroke-dashoffset: 0; stroke-linejoin: round; stroke-miterlimit: 4; fill: none; fill-rule: nonzero; opacity: 1;" vector-effect="non-scaling-stroke"  transform=" translate(-422, -916.75)" d="M 422 902.5 C 422 912 422 921.5 422 931" stroke-linecap="round" />
</g>
		<g transform="matrix(1 0 0 1 -260 248.5)"  >
<path style="stroke: rgb(0,0,0); stroke-width: 3; stroke-dasharray: none; stroke-linecap: round; stroke-dashoffset: 0; stroke-linejoin: round; stroke-miterlimit: 4; fill: none; fill-rule: nonzero; opacity: 1;" vector-effect="non-scaling-stroke"  transform=" translate(-338, -895.5)" d="M 351.999969 883 C 342.666656 891.333313 333.333313 899.666626 323.999969 908" stroke-linecap="round" />
</g>
		<g transform="matrix(1 0 0 1 6.5 238)"  >
<path style="stroke: rgb(0,0,0); stroke-width: 3; stroke-dasharray: none; stroke-linecap: round; stroke-dashoffset: 0; stroke-linejoin: round; stroke-miterlimit: 4; fill: none; fill-rule: nonzero; opacity: 1;" vector-effect="non-scaling-stroke"  transform=" translate(-604.5, -885)" d="M 594 871 C 601 880.333313 608 889.666687 615 899" stroke-linecap="round" />
</g>
		<g transform="matrix(1 0 0 1 -19.5 258)"  >
<path style="stroke: rgb(0,0,0); stroke-width: 3; stroke-dasharray: none; stroke-linecap: round; stroke-dashoffset: 0; stroke-linejoin: round; stroke-miterlimit: 4; fill: none; fill-rule: nonzero; opacity: 1;" vector-effect="non-scaling-stroke"  transform=" translate(-578.5, -905)" d="M 568 891 C 575 900.333374 582 909.666687 589 919" stroke-linecap="round" />
</g>
		<g transform="matrix(1 0 0 1 26.5 224)"  >
<path style="stroke: rgb(0,0,0); stroke-width: 3; stroke-dasharray: none; stroke-linecap: round; stroke-dashoffset: 0; stroke-linejoin: round; stroke-miterlimit: 4; fill: none; fill-rule: nonzero; opacity: 1;" vector-effect="non-scaling-stroke"  transform=" translate(-624.5, -871)" d="M 614 857 C 621 866.333313 628 875.666687 635 885" stroke-linecap="round" />
</g>
		<g transform="matrix(1 0 0 1 -12.5 252.75)"  >
<path style="stroke: rgb(0,0,0); stroke-width: 3; stroke-dasharray: none; stroke-linecap: round; stroke-dashoffset: 0; stroke-linejoin: round; stroke-miterlimit: 4; fill: none; fill-rule: nonzero; opacity: 1;" vector-effect="non-scaling-stroke"  transform=" translate(-585.5, -899.75)" d="M 575 886 C 581.935791 895.215698 588.429016 904.769348 596 913.5" stroke-linecap="round" />
</g>
		<g transform="matrix(1 0 0 1 45.5 209)"  >
<path style="stroke: rgb(0,0,0); stroke-width: 3; stroke-dasharray: none; stroke-linecap: round; stroke-dashoffset: 0; stroke-linejoin: round; stroke-miterlimit: 4; fill: none; fill-rule: nonzero; opacity: 1;" vector-effect="non-scaling-stroke"  transform=" translate(-643.5, -856)" d="M 633 842 C 640 851.333313 647 860.666687 654 870" stroke-linecap="round" />
</g>
		<g transform="matrix(1 0 0 1 33 218.5)"  >
<path style="stroke: rgb(0,0,0); stroke-width: 3; stroke-dasharray: none; stroke-linecap: round; stroke-dashoffset: 0; stroke-linejoin: round; stroke-miterlimit: 4; fill: none; fill-rule: nonzero; opacity: 1;" vector-effect="non-scaling-stroke"  transform=" translate(-631, -865.5)" d="M 621 852 C 627.666687 861 634.333313 870 641 879" stroke-linecap="round" />
</g>
		<g transform="matrix(1 0 0 1 -184.5 270)"  >
<path style="stroke: rgb(0,0,0); stroke-width: 4; stroke-dasharray: none; stroke-linecap: round; stroke-dashoffset: 0; stroke-linejoin: round; stroke-miterlimit: 4; fill: none; fill-rule: nonzero; opacity: 1;" vector-effect="non-scaling-stroke"  transform=" translate(-413.5, -917)" d="M 413.5 903.5 C 413.5 912.5 413.5 921.5 413.5 930.5" stroke-linecap="round" />
</g>
		<g transform="matrix(1 0 0 1 13.5 233.5)"  >
<path style="stroke: rgb(0,0,0); stroke-width: 3; stroke-dasharray: none; stroke-linecap: round; stroke-dashoffset: 0; stroke-linejoin: round; stroke-miterlimit: 4; fill: none; fill-rule: nonzero; opacity: 1;" vector-effect="non-scaling-stroke"  transform=" translate(-611.5, -880.5)" d="M 601 867 C 608.774963 875.397278 614.751221 885.193481 622 894" stroke-linecap="round" />
</g>
		<g transform="matrix(1 0 0 1 -273 295.25)"  >
<path style="stroke: rgb(0,0,0); stroke-width: 3; stroke-dasharray: none; stroke-linecap: round; stroke-dashoffset: 0; stroke-linejoin: round; stroke-miterlimit: 4; fill: none; fill-rule: nonzero; opacity: 1;" vector-effect="non-scaling-stroke"  transform=" translate(-325, -942.25)" d="M 315.5 930 C 321.833313 938.166687 328.166656 946.333313 334.5 954.5" stroke-linecap="round" />
</g>
		<g transform="matrix(1 0 0 1 -266.13 290)"  >
<path style="stroke: rgb(0,0,0); stroke-width: 3; stroke-dasharray: none; stroke-linecap: round; stroke-dashoffset: 0; stroke-linejoin: round; stroke-miterlimit: 4; fill: none; fill-rule: nonzero; opacity: 1;" vector-effect="non-scaling-stroke"  transform=" translate(-331.88, -937)" d="M 322.5 925 C 328.27301 933.37262 334.804962 941.152344 341.25 949" stroke-linecap="round" />
</g>
		<g transform="matrix(1 0 0 1 -279.5 300.75)"  >
<path style="stroke: rgb(0,0,0); stroke-width: 3; stroke-dasharray: none; stroke-linecap: round; stroke-dashoffset: 0; stroke-linejoin: round; stroke-miterlimit: 4; fill: none; fill-rule: nonzero; opacity: 1;" vector-effect="non-scaling-stroke"  transform=" translate(-318.5, -947.75)" d="M 309 936 C 315.333344 943.833313 321.666687 951.666687 328 959.5" stroke-linecap="round" />
</g>
		<g transform="matrix(1 0 0 1 474 -413.75)"  >
<path style="stroke: rgb(0,0,0); stroke-width: 3; stroke-dasharray: none; stroke-linecap: round; stroke-dashoffset: 0; stroke-linejoin: round; stroke-miterlimit: 4; fill: none; fill-rule: nonzero; opacity: 1;" vector-effect="non-scaling-stroke"  transform=" translate(-1072, -233.25)" d="M 1087.5 233 C 1077.166626 233.166672 1066.833374 233.333328 1056.5 233.5" stroke-linecap="round" />
</g>
		<g transform="matrix(1 0 0 1 490.14 -418)"  >
<path style="stroke: rgb(0,0,0); stroke-width: 11; stroke-dasharray: none; stroke-linecap: round; stroke-dashoffset: 0; stroke-linejoin: round; stroke-miterlimit: 4; fill: none; fill-rule: nonzero; opacity: 1;" vector-effect="non-scaling-stroke"  transform=" translate(-1088.14, -229)" d="M 1088.5 193 C 1087.373413 202.149216 1088.150024 211.333939 1088.037476 220.500458 C 1087.886108 232.831924 1088.211548 245.173203 1087.831177 257.494781 C 1087.749878 260.12442 1087.660889 262.54483 1088.5 265" stroke-linecap="round" />
</g>
		<g transform="matrix(1 0 0 1 -224.75 334.5)"  >
<path style="stroke: rgb(0,0,0); stroke-width: 3; stroke-dasharray: none; stroke-linecap: round; stroke-dashoffset: 0; stroke-linejoin: round; stroke-miterlimit: 4; fill: none; fill-rule: nonzero; opacity: 1;" vector-effect="non-scaling-stroke"  transform=" translate(-373.25, -981.5)" d="M 364.5 970 C 370.329437 977.669617 376.984955 984.710754 382 993" stroke-linecap="round" />
</g>
		<g transform="matrix(1 0 0 1 -231.75 339)"  >
<path style="stroke: rgb(0,0,0); stroke-width: 3; stroke-dasharray: none; stroke-linecap: round; stroke-dashoffset: 0; stroke-linejoin: round; stroke-miterlimit: 4; fill: none; fill-rule: nonzero; opacity: 1;" vector-effect="non-scaling-stroke"  transform=" translate(-366.25, -986)" d="M 357.5 975 C 363.333344 982.333313 369.166656 989.666687 375 997" stroke-linecap="round" />
</g>
		<g transform="matrix(1 0 0 1 -270 369.25)"  >
<path style="stroke: rgb(0,0,0); stroke-width: 3; stroke-dasharray: none; stroke-linecap: round; stroke-dashoffset: 0; stroke-linejoin: round; stroke-miterlimit: 4; fill: none; fill-rule: nonzero; opacity: 1;" vector-effect="non-scaling-stroke"  transform=" translate(-328, -1016.25)" d="M 320 1005.5 C 325.332397 1012.667358 331.580139 1019.153564 336 1027" stroke-linecap="round" />
</g>
		<g transform="matrix(1 0 0 1 -238.25 344.5)"  >
<path style="stroke: rgb(0,0,0); stroke-width: 3; stroke-dasharray: none; stroke-linecap: round; stroke-dashoffset: 0; stroke-linejoin: round; stroke-miterlimit: 4; fill: none; fill-rule: nonzero; opacity: 1;" vector-effect="non-scaling-stroke"  transform=" translate(-359.75, -991.5)" d="M 351.5 981 C 357 988 362.5 995 368 1002" stroke-linecap="round" />
</g>
		<g transform="matrix(1 0 0 1 -276.25 374.5)"  >
<path style="stroke: rgb(0,0,0); stroke-width: 3; stroke-dasharray: none; stroke-linecap: round; stroke-dashoffset: 0; stroke-linejoin: round; stroke-miterlimit: 4; fill: none; fill-rule: nonzero; opacity: 1;" vector-effect="non-scaling-stroke"  transform=" translate(-321.75, -1021.5)" d="M 313.5 1011 C 319 1018 324.5 1025 330 1032" stroke-linecap="round" />
</g>
		<g transform="matrix(1 0 0 1 -251 353.5)"  >
<path style="stroke: rgb(0,0,0); stroke-width: 3; stroke-dasharray: none; stroke-linecap: round; stroke-dashoffset: 0; stroke-linejoin: round; stroke-miterlimit: 4; fill: none; fill-rule: nonzero; opacity: 1;" vector-effect="non-scaling-stroke"  transform=" translate(-347, -1000.5)" d="M 338.5 990 C 344.166687 997 349.833344 1004 355.5 1011" stroke-linecap="round" />
</g>
		<g transform="matrix(1 0 0 1 -257.25 359.5)"  >
<path style="stroke: rgb(0,0,0); stroke-width: 3; stroke-dasharray: none; stroke-linecap: round; stroke-dashoffset: 0; stroke-linejoin: round; stroke-miterlimit: 4; fill: none; fill-rule: nonzero; opacity: 1;" vector-effect="non-scaling-stroke"  transform=" translate(-340.75, -1006.5)" d="M 332.5 996 C 338 1003 343.5 1010 349 1017" stroke-linecap="round" />
</g>
		<g transform="matrix(1 0 0 1 -283.25 379.25)"  >
<path style="stroke: rgb(0,0,0); stroke-width: 3; stroke-dasharray: none; stroke-linecap: round; stroke-dashoffset: 0; stroke-linejoin: round; stroke-miterlimit: 4; fill: none; fill-rule: nonzero; opacity: 1;" vector-effect="non-scaling-stroke"  transform=" translate(-314.75, -1026.25)" d="M 306.5 1016 C 312 1022.833313 317.5 1029.666626 323 1036.5" stroke-linecap="round" />
</g>
		<g transform="matrix(1 0 0 1 470.25 -341.52)"  >
<path style="stroke: rgb(0,0,0); stroke-width: 10; stroke-dasharray: none; stroke-linecap: round; stroke-dashoffset: 0; stroke-linejoin: round; stroke-miterlimit: 4; fill: none; fill-rule: nonzero; opacity: 1;" vector-effect="non-scaling-stroke"  transform=" translate(-1068.25, -305.48)" d="M 1058 304.5 C 1062.333374 304.5 1066.669067 304.588318 1070.999146 304.468018 C 1073.747681 304.391663 1076.260742 304.855713 1078.5 306.5" stroke-linecap="round" />
</g>
		<g transform="matrix(1 0 0 1 189.25 229)"  >
<path style="stroke: rgb(0,0,0); stroke-width: 3; stroke-dasharray: none; stroke-linecap: round; stroke-dashoffset: 0; stroke-linejoin: round; stroke-miterlimit: 4; fill: none; fill-rule: nonzero; opacity: 1;" vector-effect="non-scaling-stroke"  transform=" translate(-787.25, -876)" d="M 779.5 866 C 784.666687 872.666687 789.833313 879.333313 795 886" stroke-linecap="round" />
</g>
		<g transform="matrix(1 0 0 1 215.25 209)"  >
<path style="stroke: rgb(0,0,0); stroke-width: 3; stroke-dasharray: none; stroke-linecap: round; stroke-dashoffset: 0; stroke-linejoin: round; stroke-miterlimit: 4; fill: none; fill-rule: nonzero; opacity: 1;" vector-effect="non-scaling-stroke"  transform=" translate(-813.25, -856)" d="M 805.5 846 C 810.666687 852.666626 815.833374 859.333313 821 866" stroke-linecap="round" />
</g>
		<g transform="matrix(1 0 0 1 222.25 204)"  >
<path style="stroke: rgb(0,0,0); stroke-width: 3; stroke-dasharray: none; stroke-linecap: round; stroke-dashoffset: 0; stroke-linejoin: round; stroke-miterlimit: 4; fill: none; fill-rule: nonzero; opacity: 1;" vector-effect="non-scaling-stroke"  transform=" translate(-820.25, -851)" d="M 812.5 841 C 817.666626 847.666687 822.833313 854.333374 828 861" stroke-linecap="round" />
</g>
		<g transform="matrix(1 0 0 1 196 223.5)"  >
<path style="stroke: rgb(0,0,0); stroke-width: 3; stroke-dasharray: none; stroke-linecap: round; stroke-dashoffset: 0; stroke-linejoin: round; stroke-miterlimit: 4; fill: none; fill-rule: nonzero; opacity: 1;" vector-effect="non-scaling-stroke"  transform=" translate(-794, -870.5)" d="M 786.5 861 C 791.5 867.333374 796.5 873.666687 801.5 880" stroke-linecap="round" />
</g>
		<g transform="matrix(1 0 0 1 208.25 213.5)"  >
<path style="stroke: rgb(0,0,0); stroke-width: 3; stroke-dasharray: none; stroke-linecap: round; stroke-dashoffset: 0; stroke-linejoin: round; stroke-miterlimit: 4; fill: none; fill-rule: nonzero; opacity: 1;" vector-effect="non-scaling-stroke"  transform=" translate(-806.25, -860.5)" d="M 798.5 851 C 803.666687 857.333313 808.833313 863.666687 814 870" stroke-linecap="round" />
</g>
		<g transform="matrix(1 0 0 1 -412 631.99)"  >
<path style="stroke: rgb(0,0,0); stroke-width: 2; stroke-dasharray: none; stroke-linecap: round; stroke-dashoffset: 0; stroke-linejoin: round; stroke-miterlimit: 4; fill: none; fill-rule: nonzero; opacity: 1;" vector-effect="non-scaling-stroke"  transform=" translate(-186, -1278.98)" d="M 167.5 1279.5 C 168.737534 1278.783447 170.019165 1278.458252 171.500183 1278.466553 C 182.499847 1278.52832 193.5 1278.5 204.5 1278.5" stroke-linecap="round" />
</g>
		<g transform="matrix(1 0 0 1 176.75 238)"  >
<path style="stroke: rgb(0,0,0); stroke-width: 3; stroke-dasharray: none; stroke-linecap: round; stroke-dashoffset: 0; stroke-linejoin: round; stroke-miterlimit: 4; fill: none; fill-rule: nonzero; opacity: 1;" vector-effect="non-scaling-stroke"  transform=" translate(-774.75, -885)" d="M 767.5 876 C 772.276184 882.046021 776.534851 888.508972 782 894" stroke-linecap="round" />
</g>
		<g transform="matrix(1 0 0 1 170 243.25)"  >
<path style="stroke: rgb(0,0,0); stroke-width: 3; stroke-dasharray: none; stroke-linecap: round; stroke-dashoffset: 0; stroke-linejoin: round; stroke-miterlimit: 4; fill: none; fill-rule: nonzero; opacity: 1;" vector-effect="non-scaling-stroke"  transform=" translate(-768, -890.25)" d="M 761 881.5 C 765.666626 887.333374 770.333313 893.166687 775 899" stroke-linecap="round" />
</g>
		<g transform="matrix(1 0 0 1 -505.56 459.5)"  >
<path style="stroke: rgb(0,0,0); stroke-width: 10; stroke-dasharray: none; stroke-linecap: round; stroke-dashoffset: 0; stroke-linejoin: round; stroke-miterlimit: 4; fill: none; fill-rule: nonzero; opacity: 1;" vector-effect="non-scaling-stroke"  transform=" translate(-92.45, -1106.5)" d="M 93 1095.5 C 92.32222 1102.821777 91.17849 1110.132812 92.5 1117.5" stroke-linecap="round" />
</g>
		<g transform="matrix(1 0 0 1 -577.79 600.77)"  >
<path style="stroke: rgb(0,0,0); stroke-width: 11; stroke-dasharray: none; stroke-linecap: round; stroke-dashoffset: 0; stroke-linejoin: round; stroke-miterlimit: 4; fill: none; fill-rule: nonzero; opacity: 1;" vector-effect="non-scaling-stroke"  transform=" translate(-20.21, -1247.77)" d="M 20.5 1230 C 21.660063 1235.134644 20.287342 1240.4021 21.105392 1245.483032 C 22.029589 1251.223267 20.620052 1256.830688 20.967621 1262.501953 C 21.049753 1263.842163 21.618164 1265.801025 19 1265.5" stroke-linecap="round" />
</g>
		<g transform="matrix(1 0 0 1 -79.75 94.99)"  >
<path style="stroke: rgb(0,0,0); stroke-width: 3; stroke-dasharray: none; stroke-linecap: round; stroke-dashoffset: 0; stroke-linejoin: round; stroke-miterlimit: 4; fill: none; fill-rule: nonzero; opacity: 1;" vector-effect="non-scaling-stroke"  transform=" translate(-518.25, -741.98)" d="M 520.5 739 C 515.695862 738.521912 517.777283 743.207947 516 745" stroke-linecap="round" />
</g>
		<g transform="matrix(1 0 0 1 -278.72 43.5)"  >
<path style="stroke: rgb(0,0,0); stroke-width: 2; stroke-dasharray: none; stroke-linecap: round; stroke-dashoffset: 0; stroke-linejoin: round; stroke-miterlimit: 4; fill: none; fill-rule: nonzero; opacity: 1;" vector-effect="non-scaling-stroke"  transform=" translate(-319.28, -690.5)" d="M 320 692.5 C 321.877899 689.389954 321.395905 688.618713 317.5 688.5" stroke-linecap="round" />
</g>
		<g transform="matrix(1 0 0 1 554.01 180.75)"  >
<path style="stroke: rgb(0,0,0); stroke-width: 2; stroke-dasharray: none; stroke-linecap: round; stroke-dashoffset: 0; stroke-linejoin: round; stroke-miterlimit: 4; fill: none; fill-rule: nonzero; opacity: 1;" vector-effect="non-scaling-stroke"  transform=" translate(-1152.01, -827.75)" d="M 1149.5 826 C 1150.733521 827.7854 1154.807129 825.51355 1154.5 829.5" stroke-linecap="round" />
</g>
		<g transform="matrix(1 0 0 1 217.75 436.5)"  >
<path style="stroke: rgb(0,0,0); stroke-width: 2; stroke-dasharray: none; stroke-linecap: round; stroke-dashoffset: 0; stroke-linejoin: round; stroke-miterlimit: 4; fill: none; fill-rule: nonzero; opacity: 1;" vector-effect="non-scaling-stroke"  transform=" translate(-815.75, -1083.5)" d="M 818.5 1084.5 C 817.168701 1082.15918 815.194031 1082.177368 813 1083" stroke-linecap="round" />
</g>
		<g transform="matrix(1 0 0 1 503.5 237.25)"  >
<path style="stroke: rgb(0,0,0); stroke-width: 4; stroke-dasharray: none; stroke-linecap: round; stroke-dashoffset: 0; stroke-linejoin: round; stroke-miterlimit: 4; fill: none; fill-rule: nonzero; opacity: 1;" vector-effect="non-scaling-stroke"  transform=" translate(-1101.5, -884.25)" d="M 1099.500122 879.999939 C 1100.833374 882.833313 1102.166748 885.666626 1103.500122 888.499939" stroke-linecap="round" />
</g>
		<g transform="matrix(1 0 0 1 454 -629.75)"  >
<path style="stroke: rgb(0,0,0); stroke-width: 2; stroke-dasharray: none; stroke-linecap: round; stroke-dashoffset: 0; stroke-linejoin: round; stroke-miterlimit: 4; fill: none; fill-rule: nonzero; opacity: 1;" vector-effect="non-scaling-stroke"  transform=" translate(-1052, -17.25)" d="M 1049.5 16.5 C 1050.699951 18.555674 1053.070312 16.710175 1054.5 18" stroke-linecap="round" />
</g>
		<g transform="matrix(1 0 0 1 213.52 435.5)"  >
<path style="stroke: rgb(0,0,0); stroke-width: 2; stroke-dasharray: none; stroke-linecap: round; stroke-dashoffset: 0; stroke-linejoin: round; stroke-miterlimit: 4; fill: none; fill-rule: nonzero; opacity: 1;" vector-effect="non-scaling-stroke"  transform=" translate(-811.52, -1082.5)" d="M 810 1079.5 C 810.270569 1081.068604 811.616455 1081.876099 812.429626 1083.048828 C 813.996521 1085.30835 812.291565 1085.56665 810.5 1085.5" stroke-linecap="round" />
</g>
		<g transform="matrix(1 0 0 1 39.32 516.25)"  >
<path style="stroke: rgb(0,0,0); stroke-width: 2; stroke-dasharray: none; stroke-linecap: round; stroke-dashoffset: 0; stroke-linejoin: round; stroke-miterlimit: 4; fill: none; fill-rule: nonzero; opacity: 1;" vector-effect="non-scaling-stroke"  transform=" translate(-637.32, -1163.25)" d="M 637 1161 C 637.690918 1162.441772 637.753601 1163.953247 637.5 1165.5" stroke-linecap="round" />
</g>
		<g transform="matrix(1 0 0 1 189.25 445.18)"  >
<path style="stroke: rgb(0,0,0); stroke-width: 3; stroke-dasharray: none; stroke-linecap: round; stroke-dashoffset: 0; stroke-linejoin: round; stroke-miterlimit: 4; fill: none; fill-rule: nonzero; opacity: 1;" vector-effect="non-scaling-stroke"  transform=" translate(-787.25, -1092.18)" d="M 790.5 1091.5 C 787.783936 1094.124268 786.007996 1093.987671 784 1091" stroke-linecap="round" />
</g>
		<g transform="matrix(1 0 0 1 -229.25 606.25)"  >
<path style="stroke: rgb(0,0,0); stroke-width: 2; stroke-dasharray: none; stroke-linecap: round; stroke-dashoffset: 0; stroke-linejoin: round; stroke-miterlimit: 4; fill: none; fill-rule: nonzero; opacity: 1;" vector-effect="non-scaling-stroke"  transform=" translate(-368.75, -1253.25)" d="M 368.000031 1250 C 368.500031 1252.166626 369.000031 1254.333374 369.500031 1256.5" stroke-linecap="round" />
</g>
		<g transform="matrix(1 0 0 1 -582.76 585.75)"  >
<path style="stroke: rgb(0,0,0); stroke-width: 2; stroke-dasharray: none; stroke-linecap: round; stroke-dashoffset: 0; stroke-linejoin: round; stroke-miterlimit: 4; fill: none; fill-rule: nonzero; opacity: 1;" vector-effect="non-scaling-stroke"  transform=" translate(-15.24, -1232.75)" d="M 16 1231 C 13.82847 1231.450317 14.66852 1233.191284 14.5 1234.5" stroke-linecap="round" />
</g>
		<g transform="matrix(1 0 0 1 457.25 -633.5)"  >
<path style="stroke: rgb(0,0,0); stroke-width: 3; stroke-dasharray: none; stroke-linecap: round; stroke-dashoffset: 0; stroke-linejoin: round; stroke-miterlimit: 4; fill: none; fill-rule: nonzero; opacity: 1;" vector-effect="non-scaling-stroke"  transform=" translate(-1055.25, -13.5)" d="M 1054.5 10.499999 C 1055 12.499999 1055.5 14.499999 1056 16.5" stroke-linecap="round" />
</g>
		<g transform="matrix(1 0 0 1 39 519)"  >
<path style="stroke: rgb(0,0,0); stroke-width: 2; stroke-dasharray: none; stroke-linecap: round; stroke-dashoffset: 0; stroke-linejoin: round; stroke-miterlimit: 4; fill: none; fill-rule: nonzero; opacity: 1;" vector-effect="non-scaling-stroke"  transform=" translate(-637, -1166)" d="M 640.5 1166.5 C 638.166687 1166.667603 635.833313 1164.155396 633.5 1166.5" stroke-linecap="round" />
</g>
		<g transform="matrix(1 0 0 1 -236.74 608.25)"  >
<path style="stroke: rgb(0,0,0); stroke-width: 2; stroke-dasharray: none; stroke-linecap: round; stroke-dashoffset: 0; stroke-linejoin: round; stroke-miterlimit: 4; fill: none; fill-rule: nonzero; opacity: 1;" vector-effect="non-scaling-stroke"  transform=" translate(-361.26, -1255.25)" d="M 361 1253 C 360.660522 1254.480835 363.77417 1256.345337 360.5 1257.5" stroke-linecap="round" />
</g>
		<g transform="matrix(1 0 0 1 525.75 217.25)"  >
<path style="stroke: rgb(0,0,0); stroke-width: 2; stroke-dasharray: none; stroke-linecap: round; stroke-dashoffset: 0; stroke-linejoin: round; stroke-miterlimit: 4; fill: none; fill-rule: nonzero; opacity: 1;" vector-effect="non-scaling-stroke"  transform=" translate(-1123.75, -864.25)" d="M 1122 864.000061 C 1123.166626 864.166687 1124.333374 864.333374 1125.5 864.500061" stroke-linecap="round" />
</g>
		<g transform="matrix(1 0 0 1 99.53 480.26)"  >
<path style="stroke: rgb(0,0,0); stroke-width: 2; stroke-dasharray: none; stroke-linecap: round; stroke-dashoffset: 0; stroke-linejoin: round; stroke-miterlimit: 4; fill: none; fill-rule: nonzero; opacity: 1;" vector-effect="non-scaling-stroke"  transform=" translate(-697.53, -1127.26)" d="M 697 1125 C 697.333313 1125.833374 697.550415 1126.740112 698.021973 1127.486084 C 699.378052 1129.631104 697.931213 1129.531738 696.5 1129.5" stroke-linecap="round" />
</g>
</g>
</g>
</svg>